<svg width="468" height="216" viewBox="0 0 468 216" fill="none" xmlns="http://www.w3.org/2000/svg">
<path d="M1.24036 1.11475C14.9564 23.5931 27.0554 39.7147 43.7624 51.3437C52.1881 58.5056 62.3206 60.7388 74.5909 63.8348C85.5425 66.5981 100.104 75.5284 112.861 76.5914C124.554 77.5659 133.328 81.9512 142.626 84.6422C154.32 88.7904 166.6 86.9093 178.77 88.7904C194.299 91.1907 209.682 95.6929 229.796 101.042C235.55 102.571 240.707 101.366 244.679 102.571C249.36 103.991 253.102 106.511 257.436 110.609C259.32 112.391 269.88 114.693 282.949 118.017C291.996 120.318 302.084 124.86 311.651 126.555C325.471 129.003 337.994 131.604 348.858 134.482C361.846 137.922 373.854 142.002 389.254 147.816C393.506 156.32 398.424 161.568 403.074 161.671C406.607 161.749 412.641 159.509 415.831 149.942L426.461 152.068C420.389 154.745 417.129 157.495 416.853 161.671C416.591 165.647 416.853 174.392 424.335 178.644C423.564 182.094 423.797 183.712 427.524 185.023C417.31 187.545 409.154 188.823 400.948 188.911C391.998 189.007 382.988 187.688 371.182 185.023C362.638 183.408 354.491 182.669 343.543 183.023C331.789 183.403 316.808 185.043 294.643 188.212C261.489 194.443 229.15 197.747 198.968 199.405C125.617 207.347 83.0953 192.604 49.0777 199.944C33.4354 203.319 23.3625 208.045 20.3753 214.788L1.24036 1.11475Z" fill="#D9D9D9"/>
<path d="M1.24036 1.11475C14.9564 23.5931 27.0554 39.7147 43.7624 51.3437C52.1881 58.5056 62.3206 60.7388 74.5909 63.8348C85.5425 66.5981 100.104 75.5284 112.861 76.5914C124.554 77.5659 133.328 81.9512 142.626 84.6422C154.32 88.7904 166.6 86.9093 178.77 88.7904C194.299 91.1907 209.682 95.6929 229.796 101.042C235.55 102.571 240.707 101.366 244.679 102.571C249.36 103.991 253.102 106.511 257.436 110.609C259.32 112.391 269.881 114.693 282.949 118.017C291.996 120.318 302.084 124.86 311.651 126.555C325.471 129.003 337.994 131.604 348.858 134.482C361.846 137.922 373.854 142.002 389.254 147.816C393.506 156.32 398.424 161.568 403.074 161.671C406.607 161.749 412.641 159.509 415.831 149.942L426.461 152.068C420.389 154.745 417.957 158.446 416.853 161.671C415.41 165.888 415.79 173.329 423.272 177.581C422.501 181.031 423.797 183.712 427.524 185.023C417.31 187.545 409.154 188.823 400.948 188.911C391.998 189.007 382.988 187.688 371.182 185.023C362.638 183.408 354.491 182.669 343.543 183.023C331.789 183.403 316.808 185.043 294.643 188.212C261.489 194.443 229.15 197.747 198.968 199.405C125.617 207.347 83.0953 192.604 49.0777 199.944C33.4354 203.319 23.3625 208.045 20.3753 214.788" stroke="black" stroke-width="2.1261"/>
<path d="M68.2126 62.224C58.7523 59.7828 50.6818 57.2253 43.7625 51.3437C38.2587 47.5128 33.2549 43.1942 28.5287 38.3215L37.3841 23.4388C38.4472 21.3127 63.7753 34.4628 77.7801 43.6368L68.2126 62.224Z" stroke="black" stroke-width="2.1261"/>
<path d="M112.861 76.5914C112.157 76.5328 111.448 76.4502 110.735 76.3461M110.735 76.3461C98.509 74.5621 84.9385 66.4457 74.5909 63.8348C72.3973 63.2813 70.272 62.7554 68.2126 62.224L77.7801 43.6368C96.0429 46.4964 105.66 48.5396 121.365 53.2043L110.735 76.3461Z" stroke="black" stroke-width="2.1261"/>
<path d="M142.626 84.6422C133.328 81.9512 124.554 77.5659 112.861 76.5914C112.157 76.5328 111.448 76.4502 110.735 76.3461L121.365 53.2043C136.205 54.1881 144.375 55.6715 158.572 60.6456C158.007 65.8217 157.161 68.6734 154.851 73.6835C152.351 79.9453 151.789 82.5173 151.131 86.7214C148.269 86.285 145.431 85.637 142.626 84.6422Z" stroke="black" stroke-width="2.1261"/>
<path d="M201.094 93.442C193.347 91.5135 186.074 89.9195 178.77 88.7904C169.518 87.3604 160.203 88.1045 151.131 86.7214C152.041 81.6229 152.814 78.7678 154.851 73.6835C157.004 68.5668 157.852 65.7107 158.572 60.6457C158.684 59.8559 169.978 61.4504 180.896 62.7718C191.161 64.014 201.094 64.9307 201.094 65.9609V93.442Z" stroke="black" stroke-width="2.1261"/>
<path d="M244.679 102.571C240.707 101.366 235.55 102.571 229.796 101.042C218.291 97.9596 211.966 96.2803 201.094 93.442V65.9609C201.094 63.8348 245.742 71.2762 245.742 73.4023V102.918C245.393 102.796 245.039 102.681 244.679 102.571Z" stroke="black" stroke-width="2.1261"/>
<path d="M244.679 102.572C245.039 102.681 245.393 102.796 245.742 102.919M245.742 102.919C249.938 104.388 253.435 106.826 257.436 110.609C259.32 112.391 269.88 114.693 282.949 118.017C287.368 119.14 292.035 120.799 296.769 122.399V88.7904C276.571 82.9698 245.742 69.1501 245.742 74.4653V102.919Z" stroke="black" stroke-width="2.1261"/>
<path d="M403.074 161.671C398.424 161.568 393.506 156.32 389.254 147.816C408.389 143.564 410.709 135.345 414.768 136.502C416.853 137.097 417.957 141.438 415.831 149.942C412.641 159.509 406.607 161.749 403.074 161.671Z" stroke="black" stroke-width="2.1261"/>
<path d="M416.853 161.671C417.957 158.446 420.389 154.745 426.461 152.068C434.965 149.942 439.919 146.33 444.533 146.844C447.722 146.844 447.722 148.879 460.479 160.573C447.722 170.14 439.218 171.203 423.272 177.581C415.79 173.329 415.41 165.888 416.853 161.671Z" stroke="black" stroke-width="2.1261"/>
<path d="M427.524 185.023C423.797 183.712 422.501 181.031 423.272 177.581C438.404 171.584 448.162 169.587 460.479 160.573C462.508 162.138 466.857 164.825 466.857 165.888C466.857 169.077 442.407 181.347 427.524 185.023Z" stroke="black" stroke-width="2.1261"/>
<path d="M19.2912 69.5987V68.3025L25.0097 59.2547H25.95V61.2625H25.3146L20.994 68.0992V68.2009H28.6949V69.5987H19.2912ZM25.4163 72.2673V69.2048V68.6012V59.2547H26.9158V72.2673H25.4163ZM35.476 59.2547V72.2673H33.9003V60.9067H33.824L30.6471 63.0161V61.415L33.9003 59.2547H35.476ZM43.7932 59.2547V72.2673H42.2174V60.9067H42.1412L38.9643 63.0161V61.415L42.2174 59.2547H43.7932Z" fill="black"/>
<path d="M63.9394 90.8598V89.5636L69.6578 80.5157H70.5982V82.5235H69.9628L65.6422 89.3603V89.4619H73.3431V90.8598H63.9394ZM70.0645 93.5284V90.4658V89.8622V80.5157H71.564V93.5284H70.0645ZM80.1242 80.5157V93.5284H78.5484V82.1677H78.4722L75.2953 84.2772V82.676L78.5484 80.5157H80.1242ZM88.111 93.7063C87.1537 93.7063 86.3382 93.4458 85.6647 92.9248C84.9912 92.3995 84.4766 91.6392 84.1208 90.6437C83.7649 89.6441 83.587 88.4368 83.587 87.0221C83.587 85.6157 83.7649 84.4149 84.1208 83.4194C84.4808 82.4198 84.9976 81.6573 85.6711 81.132C86.3488 80.6026 87.1621 80.3378 88.111 80.3378C89.0598 80.3378 89.871 80.6026 90.5445 81.132C91.2222 81.6573 91.739 82.4198 92.0948 83.4194C92.4549 84.4149 92.6349 85.6157 92.6349 87.0221C92.6349 88.4368 92.457 89.6441 92.1012 90.6437C91.7454 91.6392 91.2307 92.3995 90.5572 92.9248C89.8837 93.4458 89.0683 93.7063 88.111 93.7063ZM88.111 92.3084C89.0598 92.3084 89.7969 91.851 90.3221 90.936C90.8474 90.0211 91.11 88.7164 91.11 87.0221C91.11 85.8953 90.9893 84.9359 90.7478 84.1438C90.5106 83.3517 90.1675 82.748 89.7185 82.3329C89.2737 81.9178 88.7379 81.7102 88.111 81.7102C87.1706 81.7102 86.4357 82.1741 85.9062 83.1017C85.3767 84.0252 85.112 85.3319 85.112 87.0221C85.112 88.1488 85.2306 89.1061 85.4678 89.894C85.705 90.6819 86.046 91.2812 86.4907 91.6921C86.9397 92.103 87.4798 92.3084 88.111 92.3084Z" fill="black"/>
<path d="M108.588 105.742V104.446L114.306 95.3984H115.246V97.4063H114.611L110.29 104.243V104.345H117.991V105.742H108.588ZM114.713 108.411V105.349V104.745V95.3984H116.212V108.411H114.713ZM124.617 108.589C123.659 108.589 122.844 108.329 122.17 107.807C121.497 107.282 120.982 106.522 120.626 105.526C120.271 104.527 120.093 103.32 120.093 101.905C120.093 100.498 120.271 99.2976 120.626 98.3021C120.987 97.3025 121.503 96.54 122.177 96.0148C122.855 95.4853 123.668 95.2205 124.617 95.2205C125.566 95.2205 126.377 95.4853 127.05 96.0148C127.728 96.54 128.245 97.3025 128.601 98.3021C128.961 99.2976 129.141 100.498 129.141 101.905C129.141 103.32 128.963 104.527 128.607 105.526C128.251 106.522 127.736 107.282 127.063 107.807C126.389 108.329 125.574 108.589 124.617 108.589ZM124.617 107.191C125.566 107.191 126.303 106.734 126.828 105.819C127.353 104.904 127.616 103.599 127.616 101.905C127.616 100.778 127.495 99.8186 127.254 99.0265C127.016 98.2344 126.673 97.6308 126.224 97.2156C125.779 96.8005 125.244 96.593 124.617 96.593C123.676 96.593 122.941 97.0568 122.412 97.9845C121.882 98.9079 121.618 100.215 121.618 101.905C121.618 103.032 121.736 103.989 121.974 104.777C122.211 105.565 122.552 106.164 122.996 106.575C123.445 106.986 123.986 107.191 124.617 107.191ZM135.698 95.2205C136.232 95.2248 136.765 95.3264 137.299 95.5255C137.833 95.7246 138.32 96.055 138.76 96.5167C139.201 96.9742 139.555 97.599 139.821 98.3911C140.088 99.1832 140.222 100.177 140.222 101.371C140.222 102.527 140.112 103.555 139.891 104.453C139.675 105.346 139.362 106.1 138.951 106.715C138.544 107.329 138.049 107.795 137.464 108.112C136.884 108.43 136.227 108.589 135.494 108.589C134.766 108.589 134.116 108.445 133.544 108.157C132.976 107.865 132.51 107.46 132.146 106.943C131.786 106.422 131.555 105.819 131.453 105.133H133.004C133.144 105.73 133.421 106.223 133.836 106.613C134.255 106.998 134.808 107.191 135.494 107.191C136.498 107.191 137.29 106.753 137.871 105.876C138.455 104.999 138.748 103.76 138.748 102.159H138.646C138.409 102.515 138.127 102.822 137.801 103.08C137.475 103.339 137.113 103.538 136.714 103.677C136.316 103.817 135.893 103.887 135.444 103.887C134.698 103.887 134.014 103.703 133.391 103.334C132.773 102.962 132.277 102.451 131.905 101.803C131.536 101.151 131.352 100.405 131.352 99.5666C131.352 98.7702 131.53 98.0416 131.885 97.3808C132.246 96.7158 132.75 96.1863 133.398 95.7924C134.05 95.3984 134.817 95.2078 135.698 95.2205ZM135.698 96.6184C135.164 96.6184 134.683 96.7518 134.255 97.0187C133.832 97.2813 133.495 97.6371 133.245 98.0861C133 98.5309 132.877 99.0244 132.877 99.5666C132.877 100.109 132.995 100.602 133.233 101.047C133.474 101.488 133.802 101.839 134.217 102.102C134.637 102.36 135.113 102.489 135.647 102.489C136.049 102.489 136.424 102.411 136.772 102.254C137.119 102.093 137.422 101.875 137.68 101.6C137.943 101.32 138.148 101.005 138.297 100.653C138.445 100.297 138.519 99.9266 138.519 99.5411C138.519 99.0328 138.396 98.5563 138.15 98.1115C137.909 97.6668 137.574 97.3067 137.146 97.0314C136.723 96.756 136.24 96.6184 135.698 96.6184Z" fill="black"/>
<path d="M114.782 161.402V159.236L120.214 150.677H122.082V153.676H120.977L117.552 159.096V159.198H125.272V161.402H114.782ZM121.027 163.69V160.742L121.078 159.782V150.677H123.658V163.69H121.027Z" fill="black"/>
<path d="M159.614 109.995V108.699L165.333 99.6506H166.273V101.658H165.637L161.317 108.495V108.597H169.018V109.995H159.614ZM165.739 112.663V109.601V108.997V99.6506H167.239V112.663H165.739ZM175.643 112.841C174.686 112.841 173.87 112.581 173.197 112.06C172.523 111.534 172.009 110.774 171.653 109.779C171.297 108.779 171.119 107.572 171.119 106.157C171.119 104.751 171.297 103.55 171.653 102.554C172.013 101.555 172.53 100.792 173.203 100.267C173.881 99.7375 174.694 99.4727 175.643 99.4727C176.592 99.4727 177.403 99.7375 178.077 100.267C178.754 100.792 179.271 101.555 179.627 102.554C179.987 103.55 180.167 104.751 180.167 106.157C180.167 107.572 179.989 108.779 179.633 109.779C179.278 110.774 178.763 111.534 178.089 112.06C177.416 112.581 176.601 112.841 175.643 112.841ZM175.643 111.443C176.592 111.443 177.329 110.986 177.854 110.071C178.38 109.156 178.642 107.851 178.642 106.157C178.642 105.03 178.521 104.071 178.28 103.279C178.043 102.487 177.7 101.883 177.251 101.468C176.806 101.053 176.27 100.845 175.643 100.845C174.703 100.845 173.968 101.309 173.438 102.237C172.909 103.16 172.644 104.467 172.644 106.157C172.644 107.284 172.763 108.241 173 109.029C173.237 109.817 173.578 110.416 174.023 110.827C174.472 111.238 175.012 111.443 175.643 111.443ZM186.75 112.841C185.877 112.841 185.106 112.687 184.437 112.377C183.772 112.064 183.253 111.634 182.88 111.088C182.507 110.537 182.323 109.91 182.327 109.207C182.323 108.656 182.431 108.148 182.651 107.682C182.872 107.212 183.172 106.82 183.554 106.506C183.939 106.189 184.369 105.988 184.844 105.903V105.827C184.221 105.666 183.725 105.316 183.357 104.778C182.988 104.236 182.806 103.62 182.81 102.929C182.806 102.268 182.973 101.678 183.312 101.157C183.651 100.635 184.117 100.225 184.71 99.9239C185.307 99.6231 185.987 99.4727 186.75 99.4727C187.504 99.4727 188.177 99.6231 188.77 99.9239C189.363 100.225 189.829 100.635 190.168 101.157C190.511 101.678 190.685 102.268 190.689 102.929C190.685 103.62 190.496 104.236 190.124 104.778C189.755 105.316 189.266 105.666 188.656 105.827V105.903C189.126 105.988 189.55 106.189 189.927 106.506C190.304 106.82 190.604 107.212 190.829 107.682C191.053 108.148 191.168 108.656 191.172 109.207C191.168 109.91 190.977 110.537 190.6 111.088C190.227 111.634 189.708 112.064 189.043 112.377C188.383 112.687 187.618 112.841 186.75 112.841ZM186.75 111.443C187.338 111.443 187.847 111.348 188.275 111.157C188.702 110.967 189.033 110.698 189.266 110.351C189.499 110.003 189.617 109.597 189.622 109.131C189.617 108.639 189.49 108.205 189.24 107.828C188.99 107.451 188.649 107.155 188.217 106.938C187.79 106.722 187.3 106.614 186.75 106.614C186.195 106.614 185.699 106.722 185.263 106.938C184.831 107.155 184.49 107.451 184.24 107.828C183.994 108.205 183.874 108.639 183.878 109.131C183.874 109.597 183.986 110.003 184.215 110.351C184.447 110.698 184.78 110.967 185.212 111.157C185.644 111.348 186.157 111.443 186.75 111.443ZM186.75 105.267C187.216 105.267 187.629 105.174 187.989 104.988C188.353 104.801 188.639 104.541 188.846 104.206C189.054 103.872 189.16 103.48 189.164 103.031C189.16 102.59 189.056 102.207 188.853 101.881C188.649 101.55 188.368 101.296 188.008 101.118C187.648 100.936 187.228 100.845 186.75 100.845C186.263 100.845 185.837 100.936 185.473 101.118C185.108 101.296 184.827 101.55 184.628 101.881C184.428 102.207 184.331 102.59 184.335 103.031C184.331 103.48 184.431 103.872 184.634 104.206C184.841 104.541 185.127 104.801 185.492 104.988C185.856 105.174 186.275 105.267 186.75 105.267Z" fill="black"/>
<path d="M204.262 122.751V121.455L209.981 112.407H210.921V114.415H210.286L205.965 121.252V121.353H213.666V122.751H204.262ZM210.387 125.42V122.357V121.754V112.407H211.887V125.42H210.387ZM220.291 125.598C219.334 125.598 218.519 125.337 217.845 124.816C217.172 124.291 216.657 123.531 216.301 122.535C215.945 121.536 215.767 120.328 215.767 118.914C215.767 117.507 215.945 116.306 216.301 115.311C216.661 114.311 217.178 113.549 217.851 113.024C218.529 112.494 219.343 112.229 220.291 112.229C221.24 112.229 222.051 112.494 222.725 113.024C223.403 113.549 223.919 114.311 224.275 115.311C224.635 116.306 224.815 117.507 224.815 118.914C224.815 120.328 224.637 121.536 224.282 122.535C223.926 123.531 223.411 124.291 222.738 124.816C222.064 125.337 221.249 125.598 220.291 125.598ZM220.291 124.2C221.24 124.2 221.977 123.743 222.502 122.828C223.028 121.913 223.29 120.608 223.29 118.914C223.29 117.787 223.17 116.827 222.928 116.035C222.691 115.243 222.348 114.64 221.899 114.224C221.454 113.809 220.918 113.602 220.291 113.602C219.351 113.602 218.616 114.066 218.087 114.993C217.557 115.917 217.292 117.223 217.292 118.914C217.292 120.04 217.411 120.998 217.648 121.786C217.885 122.573 218.226 123.173 218.671 123.584C219.12 123.995 219.66 124.2 220.291 124.2ZM227.287 125.42L233.107 113.907V113.805H226.397V112.407H234.734V113.881L228.939 125.42H227.287Z" fill="black"/>
<path d="M251.037 137.634V136.338L256.755 127.29H257.695V129.298H257.06L252.739 136.135V136.236H260.44V137.634H251.037ZM257.162 140.303V137.24V136.636V127.29H258.661V140.303H257.162ZM267.066 140.481C266.108 140.481 265.293 140.22 264.619 139.699C263.946 139.174 263.431 138.413 263.075 137.418C262.72 136.418 262.542 135.211 262.542 133.796C262.542 132.39 262.72 131.189 263.075 130.194C263.435 129.194 263.952 128.432 264.626 127.906C265.304 127.377 266.117 127.112 267.066 127.112C268.014 127.112 268.826 127.377 269.499 127.906C270.177 128.432 270.694 129.194 271.05 130.194C271.41 131.189 271.59 132.39 271.59 133.796C271.59 135.211 271.412 136.418 271.056 137.418C270.7 138.413 270.185 139.174 269.512 139.699C268.838 140.22 268.023 140.481 267.066 140.481ZM267.066 139.083C268.014 139.083 268.752 138.625 269.277 137.71C269.802 136.795 270.065 135.491 270.065 133.796C270.065 132.67 269.944 131.71 269.702 130.918C269.465 130.126 269.122 129.522 268.673 129.107C268.228 128.692 267.693 128.485 267.066 128.485C266.125 128.485 265.39 128.948 264.861 129.876C264.331 130.799 264.067 132.106 264.067 133.796C264.067 134.923 264.185 135.88 264.422 136.668C264.66 137.456 265.001 138.056 265.445 138.466C265.894 138.877 266.434 139.083 267.066 139.083ZM278.325 140.481C277.791 140.472 277.257 140.37 276.723 140.176C276.19 139.981 275.703 139.652 275.262 139.191C274.822 138.725 274.468 138.096 274.201 137.304C273.934 136.507 273.801 135.508 273.801 134.305C273.801 133.152 273.909 132.132 274.125 131.242C274.341 130.348 274.654 129.596 275.065 128.986C275.476 128.372 275.972 127.906 276.552 127.589C277.136 127.271 277.795 127.112 278.528 127.112C279.257 127.112 279.905 127.258 280.472 127.55C281.044 127.839 281.51 128.241 281.87 128.758C282.23 129.274 282.463 129.87 282.569 130.543H281.019C280.875 129.959 280.595 129.474 280.18 129.088C279.765 128.703 279.214 128.51 278.528 128.51C277.52 128.51 276.726 128.948 276.145 129.825C275.569 130.702 275.279 131.933 275.275 133.517H275.376C275.614 133.157 275.895 132.85 276.222 132.595C276.552 132.337 276.916 132.138 277.314 131.998C277.713 131.858 278.134 131.789 278.579 131.789C279.324 131.789 280.006 131.975 280.625 132.348C281.243 132.716 281.739 133.227 282.112 133.879C282.484 134.527 282.671 135.27 282.671 136.109C282.671 136.914 282.491 137.651 282.131 138.32C281.771 138.985 281.264 139.515 280.612 139.909C279.964 140.298 279.201 140.489 278.325 140.481ZM278.325 139.083C278.858 139.083 279.337 138.949 279.761 138.682C280.188 138.416 280.525 138.058 280.771 137.609C281.021 137.16 281.146 136.66 281.146 136.109C281.146 135.571 281.025 135.082 280.784 134.641C280.546 134.197 280.218 133.843 279.799 133.58C279.384 133.318 278.909 133.186 278.375 133.186C277.973 133.186 277.598 133.267 277.251 133.428C276.904 133.585 276.599 133.801 276.336 134.076C276.078 134.351 275.874 134.667 275.726 135.023C275.578 135.374 275.504 135.745 275.504 136.135C275.504 136.651 275.624 137.134 275.866 137.583C276.111 138.032 276.446 138.394 276.87 138.67C277.297 138.945 277.782 139.083 278.325 139.083Z" fill="black"/>
<path d="M323.324 152.517V151.221L329.042 142.173H329.983V144.181H329.347L325.027 151.017V151.119H332.728V152.517H323.324ZM329.449 155.185V152.123V151.519V142.173H330.949V155.185H329.449ZM339.353 155.363C338.396 155.363 337.58 155.103 336.907 154.582C336.233 154.057 335.719 153.296 335.363 152.301C335.007 151.301 334.829 150.094 334.829 148.679C334.829 147.273 335.007 146.072 335.363 145.076C335.723 144.077 336.24 143.314 336.913 142.789C337.591 142.26 338.404 141.995 339.353 141.995C340.302 141.995 341.113 142.26 341.787 142.789C342.464 143.314 342.981 144.077 343.337 145.076C343.697 146.072 343.877 147.273 343.877 148.679C343.877 150.094 343.699 151.301 343.343 152.301C342.988 153.296 342.473 154.057 341.799 154.582C341.126 155.103 340.31 155.363 339.353 155.363ZM339.353 153.965C340.302 153.965 341.039 153.508 341.564 152.593C342.09 151.678 342.352 150.373 342.352 148.679C342.352 147.552 342.231 146.593 341.99 145.801C341.753 145.009 341.41 144.405 340.961 143.99C340.516 143.575 339.98 143.367 339.353 143.367C338.413 143.367 337.678 143.831 337.148 144.759C336.619 145.682 336.354 146.989 336.354 148.679C336.354 149.806 336.473 150.763 336.71 151.551C336.947 152.339 337.288 152.938 337.733 153.349C338.182 153.76 338.722 153.965 339.353 153.965ZM350.358 155.363C349.612 155.363 348.941 155.215 348.344 154.919C347.747 154.622 347.268 154.215 346.908 153.699C346.548 153.182 346.351 152.593 346.317 151.932H347.842C347.901 152.521 348.168 153.008 348.642 153.394C349.121 153.775 349.693 153.965 350.358 153.965C350.892 153.965 351.366 153.84 351.781 153.591C352.201 153.341 352.529 152.998 352.766 152.561C353.008 152.121 353.128 151.623 353.128 151.068C353.128 150.5 353.003 149.994 352.753 149.55C352.508 149.101 352.169 148.747 351.737 148.488C351.305 148.23 350.811 148.099 350.256 148.094C349.858 148.09 349.449 148.152 349.03 148.279C348.611 148.402 348.265 148.56 347.994 148.755L346.52 148.577L347.308 142.173H354.069V143.571H348.63L348.172 147.408H348.249C348.515 147.196 348.85 147.021 349.252 146.881C349.655 146.741 350.074 146.671 350.51 146.671C351.307 146.671 352.016 146.862 352.639 147.243C353.266 147.62 353.757 148.137 354.113 148.793C354.473 149.45 354.653 150.2 354.653 151.043C354.653 151.873 354.467 152.614 354.094 153.267C353.726 153.915 353.217 154.427 352.569 154.804C351.921 155.177 351.184 155.363 350.358 155.363Z" fill="black"/>
<path d="M370.098 173.778V172.482L375.817 163.434H376.757V165.442H376.122L371.801 172.278V172.38H379.502V173.778H370.098ZM376.223 176.446V173.384V172.78V163.434H377.723V176.446H376.223ZM386.127 176.624C385.17 176.624 384.355 176.364 383.681 175.843C383.008 175.318 382.493 174.557 382.137 173.562C381.781 172.562 381.604 171.355 381.604 169.94C381.604 168.534 381.781 167.333 382.137 166.337C382.497 165.338 383.014 164.575 383.688 164.05C384.365 163.521 385.179 163.256 386.127 163.256C387.076 163.256 387.887 163.521 388.561 164.05C389.239 164.575 389.755 165.338 390.111 166.337C390.471 167.333 390.651 168.534 390.651 169.94C390.651 171.355 390.473 172.562 390.118 173.562C389.762 174.557 389.247 175.318 388.574 175.843C387.9 176.364 387.085 176.624 386.127 176.624ZM386.127 175.226C387.076 175.226 387.813 174.769 388.339 173.854C388.864 172.939 389.126 171.634 389.126 169.94C389.126 168.813 389.006 167.854 388.764 167.062C388.527 166.27 388.184 165.666 387.735 165.251C387.29 164.836 386.754 164.628 386.127 164.628C385.187 164.628 384.452 165.092 383.923 166.02C383.393 166.943 383.128 168.25 383.128 169.94C383.128 171.067 383.247 172.024 383.484 172.812C383.721 173.6 384.062 174.199 384.507 174.61C384.956 175.021 385.496 175.226 386.127 175.226ZM392.761 173.778V172.482L398.479 163.434H399.42V165.442H398.784L394.464 172.278V172.38H402.165V173.778H392.761ZM398.886 176.446V173.384V172.78V163.434H400.385V176.446H398.886Z" fill="black"/>
</svg>
