<svg width="493" height="183" viewBox="0 0 493 183" fill="none" xmlns="http://www.w3.org/2000/svg">
<path d="M466.239 123.43C472.676 130.66 478.199 138.055 482.74 145.754C470.428 132.308 467.489 133.429 468.92 150.006C464.056 135.707 456.719 137.615 443.407 141.502C437.214 136.75 432.458 135.209 422.146 134.061C417.556 128.444 412.876 127.883 403.011 128.745C384.403 120.413 366.18 117.482 326.471 113.863C308.165 100.419 295.177 101.288 271.192 105.358C255.032 101.175 243.164 101.637 219.103 105.358C200.355 102.997 189.076 103.211 168.076 105.358C149.495 104.784 139.765 104.807 123.428 105.358C120.441 104.147 117.221 103.351 113.861 102.834C106.758 101.742 100.041 103.475 91.5367 101.994C87.041 101.212 82.9455 100.252 78.7801 98.9798C65.4541 93.0619 43.6994 88.3493 34.1319 85.1601C24.5644 81.971 20.3122 70.2866 13.9339 68.1513C9.9694 66.8241 6.261 65.9239 0.114258 66.0252L296.706 1.17905C303.604 8.90798 312.891 16.9252 324.345 25.3465C339.504 36.492 358.457 48.3454 380.687 61.175C413.562 83.2587 443.067 102.755 466.239 123.43Z" fill="#D9D9D9"/>
<path d="M296.706 1.17905C303.604 8.90798 312.891 16.9252 324.345 25.3465C339.504 36.492 358.457 48.3454 380.687 61.175C413.562 83.2587 443.067 102.755 466.239 123.43C473.472 130.397 478.903 137.823 482.74 145.754C470.428 132.308 467.489 133.429 468.92 150.006C464.056 135.707 456.719 137.615 443.407 141.502C437.214 136.75 432.458 135.209 422.146 134.061C417.556 128.444 412.876 127.883 403.011 128.745C384.403 120.413 366.18 117.482 326.471 113.863C308.165 100.419 295.177 101.288 271.192 105.358C255.032 101.175 243.164 101.637 219.103 105.358C200.355 102.997 189.076 103.211 168.076 105.358C149.495 104.784 139.765 104.807 123.428 105.358C120.441 104.147 117.221 103.351 113.861 102.834C106.758 101.742 100.041 103.475 91.5367 101.994C87.041 101.212 82.9455 100.252 78.7801 98.9798C65.4541 93.0619 43.6994 88.3493 34.1319 85.1601C24.5644 81.971 20.3122 70.2866 13.9339 68.1513C9.9694 66.8241 6.261 65.9239 0.114258 66.0252" stroke="black" stroke-width="2.1261"/>
<path d="M34.1319 85.1602C43.6994 88.3493 65.4541 93.062 78.7801 98.9798L77.717 125.556C72.4018 126.619 60.7082 121.645 54.3299 118.115C43.5016 112.122 35.8373 109.683 34.1319 105.358C32.0058 98.9798 35.8328 85.7003 34.1319 85.1602Z" stroke="black" stroke-width="2.1261"/>
<path d="M78.7801 98.9798C82.9455 100.252 87.0409 101.212 91.5367 101.994C100.041 103.475 106.758 101.742 113.861 102.834C117.221 103.351 120.441 104.147 123.428 105.358C120.239 117.052 122.365 123.43 119.176 130.871C102.167 130.871 88.9275 130.97 77.717 123.43C78.3854 113.506 78.5473 108.258 78.7801 98.9798Z" stroke="black" stroke-width="2.1261"/>
<path d="M123.428 105.358C139.765 104.676 149.495 104.648 168.076 105.358L167.013 131.306L119.176 130.871C122.365 125.556 120.239 113.863 123.428 105.358Z" stroke="black" stroke-width="2.1261"/>
<path d="M168.076 105.745C189.505 103.107 199.972 102.844 219.103 105.745V135.124C199.543 136.065 168.12 132.383 167.035 131.012L168.076 105.745Z" stroke="black" stroke-width="2.1261"/>
<path d="M219.103 105.358C243.164 101.637 255.032 101.175 271.192 105.358C267.724 118.32 266.083 125.559 264.814 138.313L264.713 138.313C241.321 138.309 221.226 138.307 219.103 134.061V105.358Z" stroke="black" stroke-width="2.1261"/>
<path d="M271.192 105.358C295.177 101.288 308.165 100.419 326.471 113.863C322.735 124.656 321.703 129.645 317.967 140.439C308.923 140.55 291.822 140.359 264.814 138.313C266.601 126.633 266.783 121.468 271.192 105.358Z" stroke="black" stroke-width="2.1261"/>
<path d="M403.011 128.745C412.876 127.883 417.556 128.444 422.146 134.061C422.146 144.691 419.175 148.673 416.831 148.939C413.702 149.293 408.326 141.502 403.011 128.745Z" stroke="black" stroke-width="2.1261"/>
<path d="M443.407 141.502C456.719 137.615 464.056 135.707 468.92 150.006C472.543 161.402 473.71 167.965 475.298 179.772C466.398 177.694 461.232 176.191 450.848 171.267C447.207 159.225 445.609 152.726 443.407 141.502Z" stroke="black" stroke-width="2.1261"/>
<path d="M468.92 150.006C467.489 133.429 470.428 132.308 482.74 145.754C487.661 155.976 489.392 163.942 491.244 180.835C485.67 181.582 482.069 181.154 475.298 179.772C474.271 168.965 472.856 162.437 468.92 150.006Z" stroke="black" stroke-width="2.1261"/>
<path d="M61.3147 72.0756V85.0883H59.739V73.7276H59.6627L56.4858 75.8371V74.2359L59.739 72.0756H61.3147ZM69.6319 72.0756V85.0883H68.0561V73.7276H67.9799L64.803 75.8371V74.2359L68.0561 72.0756H69.6319ZM77.9491 72.0756V85.0883H76.3733V73.7276H76.2971L73.1201 75.8371V74.2359L76.3733 72.0756H77.9491Z" fill="black"/>
<path d="M103.837 80.58V93.5927H102.261V82.232H102.185L99.0079 84.3415V82.7403L102.261 80.58H103.837ZM112.154 80.58V93.5927H110.578V82.232H110.502L107.325 84.3415V82.7403L110.578 80.58H112.154ZM120.141 93.7706C119.183 93.7706 118.368 93.5101 117.695 92.9891C117.021 92.4638 116.506 91.7035 116.151 90.708C115.795 89.7084 115.617 88.5011 115.617 87.0864C115.617 85.68 115.795 84.4792 116.151 83.4837C116.511 82.4841 117.027 81.7216 117.701 81.1963C118.379 80.6669 119.192 80.4021 120.141 80.4021C121.09 80.4021 121.901 80.6669 122.574 81.1963C123.252 81.7216 123.769 82.4841 124.125 83.4837C124.485 84.4792 124.665 85.68 124.665 87.0864C124.665 88.5011 124.487 89.7084 124.131 90.708C123.775 91.7035 123.26 92.4638 122.587 92.9891C121.913 93.5101 121.098 93.7706 120.141 93.7706ZM120.141 92.3727C121.09 92.3727 121.827 91.9153 122.352 91.0003C122.877 90.0854 123.14 88.7807 123.14 87.0864C123.14 85.9596 123.019 85.0002 122.778 84.2081C122.54 83.416 122.197 82.8123 121.748 82.3972C121.303 81.9821 120.768 81.7745 120.141 81.7745C119.2 81.7745 118.465 82.2384 117.936 83.166C117.406 84.0895 117.142 85.3962 117.142 87.0864C117.142 88.2131 117.26 89.1704 117.498 89.9583C117.735 90.7462 118.076 91.3455 118.521 91.7564C118.97 92.1673 119.51 92.3727 120.141 92.3727Z" fill="black"/>
<path d="M146.359 84.8322V97.8449H144.783V86.4842H144.707L141.53 88.5937V86.9925L144.783 84.8322H146.359ZM154.346 98.0228C153.388 98.0228 152.573 97.7623 151.899 97.2413C151.226 96.716 150.711 95.9557 150.355 94.9602C150 93.9606 149.822 92.7533 149.822 91.3386C149.822 89.9322 150 88.7314 150.355 87.7359C150.715 86.7363 151.232 85.9738 151.906 85.4485C152.584 84.9191 153.397 84.6543 154.346 84.6543C155.294 84.6543 156.106 84.9191 156.779 85.4485C157.457 85.9738 157.974 86.7363 158.329 87.7359C158.69 88.7314 158.87 89.9322 158.87 91.3386C158.87 92.7533 158.692 93.9606 158.336 94.9602C157.98 95.9557 157.465 96.716 156.792 97.2413C156.118 97.7623 155.303 98.0228 154.346 98.0228ZM154.346 96.6249C155.294 96.6249 156.032 96.1675 156.557 95.2525C157.082 94.3376 157.345 93.0329 157.345 91.3386C157.345 90.2118 157.224 89.2524 156.982 88.4603C156.745 87.6681 156.402 87.0645 155.953 86.6494C155.508 86.2343 154.973 86.0267 154.346 86.0267C153.405 86.0267 152.67 86.4906 152.141 87.4182C151.611 88.3417 151.347 89.6484 151.347 91.3386C151.347 92.4653 151.465 93.4226 151.702 94.2105C151.94 94.9984 152.281 95.5977 152.725 96.0086C153.174 96.4195 153.714 96.6249 154.346 96.6249ZM165.427 84.6543C165.96 84.6585 166.494 84.7602 167.028 84.9593C167.562 85.1584 168.049 85.4888 168.489 85.9505C168.93 86.408 169.284 87.0328 169.55 87.8249C169.817 88.617 169.951 89.6103 169.951 90.8048C169.951 91.9612 169.841 92.9884 169.62 93.8864C169.404 94.7802 169.091 95.5342 168.68 96.1484C168.273 96.7626 167.778 97.2286 167.193 97.5462C166.613 97.8639 165.956 98.0228 165.223 98.0228C164.495 98.0228 163.845 97.8788 163.273 97.5907C162.705 97.2984 162.239 96.8939 161.875 96.3771C161.515 95.8561 161.284 95.2525 161.182 94.5663H162.733C162.872 95.1636 163.15 95.657 163.565 96.0467C163.984 96.4322 164.537 96.6249 165.223 96.6249C166.227 96.6249 167.019 96.1865 167.6 95.3097C168.184 94.4329 168.477 93.1939 168.477 91.5927H168.375C168.138 91.9485 167.856 92.2556 167.53 92.514C167.204 92.7724 166.842 92.9715 166.443 93.1113C166.045 93.2511 165.622 93.3209 165.173 93.3209C164.427 93.3209 163.743 93.1367 163.12 92.7682C162.502 92.3954 162.006 91.885 161.633 91.2369C161.265 90.5846 161.081 89.839 161.081 89.0003C161.081 88.204 161.259 87.4754 161.614 86.8146C161.974 86.1496 162.479 85.6201 163.127 85.2262C163.779 84.8322 164.546 84.6416 165.427 84.6543ZM165.427 86.0522C164.893 86.0522 164.412 86.1856 163.984 86.4524C163.561 86.7151 163.224 87.0709 162.974 87.5199C162.728 87.9647 162.606 88.4581 162.606 89.0003C162.606 89.5425 162.724 90.036 162.961 90.4808C163.203 90.9213 163.531 91.2729 163.946 91.5355C164.366 91.7939 164.842 91.9231 165.376 91.9231C165.778 91.9231 166.153 91.8447 166.501 91.688C166.848 91.527 167.151 91.3089 167.409 91.0336C167.672 90.754 167.877 90.4384 168.025 90.0868C168.174 89.731 168.248 89.3604 168.248 88.9749C168.248 88.4666 168.125 87.9901 167.879 87.5453C167.638 87.1005 167.303 86.7405 166.875 86.4652C166.452 86.1898 165.969 86.0522 165.427 86.0522Z" fill="black"/>
<path d="M186.755 82.7061V95.7188H185.179V84.3581H185.103L181.926 86.4676V84.8664L185.179 82.7061H186.755ZM194.742 95.8967C193.784 95.8967 192.969 95.6362 192.295 95.1152C191.622 94.5899 191.107 93.8296 190.751 92.8341C190.396 91.8345 190.218 90.6272 190.218 89.2125C190.218 87.8061 190.396 86.6053 190.751 85.6098C191.111 84.6102 191.628 83.8477 192.302 83.3224C192.979 82.793 193.793 82.5282 194.742 82.5282C195.69 82.5282 196.502 82.793 197.175 83.3224C197.853 83.8477 198.37 84.6102 198.725 85.6098C199.086 86.6053 199.266 87.8061 199.266 89.2125C199.266 90.6272 199.088 91.8345 198.732 92.8341C198.376 93.8296 197.861 94.5899 197.188 95.1152C196.514 95.6362 195.699 95.8967 194.742 95.8967ZM194.742 94.4988C195.69 94.4988 196.427 94.0414 196.953 93.1264C197.478 92.2115 197.741 90.9068 197.741 89.2125C197.741 88.0857 197.62 87.1263 197.378 86.3342C197.141 85.5421 196.798 84.9384 196.349 84.5233C195.904 84.1082 195.369 83.9006 194.742 83.9006C193.801 83.9006 193.066 84.3645 192.537 85.2921C192.007 86.2156 191.743 87.5223 191.743 89.2125C191.743 90.3392 191.861 91.2965 192.098 92.0844C192.336 92.8723 192.677 93.4716 193.121 93.8825C193.57 94.2934 194.11 94.4988 194.742 94.4988ZM205.848 95.8967C204.976 95.8967 204.205 95.7421 203.535 95.4329C202.87 95.1194 202.351 94.6895 201.979 94.143C201.606 93.5924 201.422 92.9655 201.426 92.2623C201.422 91.7116 201.53 91.2033 201.75 90.7374C201.97 90.2672 202.271 89.8754 202.652 89.5619C203.038 89.2442 203.468 89.043 203.942 88.9583V88.8821C203.319 88.7211 202.824 88.3716 202.455 87.8337C202.087 87.2915 201.904 86.6752 201.909 85.9847C201.904 85.3239 202.072 84.733 202.411 84.212C202.75 83.691 203.216 83.2801 203.809 82.9793C204.406 82.6786 205.086 82.5282 205.848 82.5282C206.602 82.5282 207.276 82.6786 207.869 82.9793C208.462 83.2801 208.928 83.691 209.266 84.212C209.61 84.733 209.783 85.3239 209.787 85.9847C209.783 86.6752 209.595 87.2915 209.222 87.8337C208.853 88.3716 208.364 88.7211 207.754 88.8821V88.9583C208.224 89.043 208.648 89.2442 209.025 89.5619C209.402 89.8754 209.703 90.2672 209.927 90.7374C210.152 91.2033 210.266 91.7116 210.27 92.2623C210.266 92.9655 210.076 93.5924 209.699 94.143C209.326 94.6895 208.807 95.1194 208.142 95.4329C207.481 95.7421 206.716 95.8967 205.848 95.8967ZM205.848 94.4988C206.437 94.4988 206.945 94.4035 207.373 94.2129C207.801 94.0223 208.131 93.7533 208.364 93.406C208.597 93.0586 208.716 92.652 208.72 92.186C208.716 91.6947 208.589 91.2605 208.339 90.8835C208.089 90.5065 207.748 90.21 207.316 89.994C206.888 89.7779 206.399 89.6699 205.848 89.6699C205.293 89.6699 204.798 89.7779 204.361 89.994C203.929 90.21 203.588 90.5065 203.338 90.8835C203.093 91.2605 202.972 91.6947 202.976 92.186C202.972 92.652 203.084 93.0586 203.313 93.406C203.546 93.7533 203.878 94.0223 204.31 94.2129C204.743 94.4035 205.255 94.4988 205.848 94.4988ZM205.848 88.3229C206.314 88.3229 206.727 88.2297 207.087 88.0433C207.451 87.857 207.737 87.5965 207.945 87.2618C208.152 86.9272 208.258 86.5354 208.263 86.0864C208.258 85.6458 208.155 85.2625 207.951 84.9363C207.748 84.6059 207.466 84.3518 207.106 84.1739C206.746 83.9917 206.327 83.9006 205.848 83.9006C205.361 83.9006 204.935 83.9917 204.571 84.1739C204.207 84.3518 203.925 84.6059 203.726 84.9363C203.527 85.2625 203.429 85.6458 203.434 86.0864C203.429 86.5354 203.529 86.9272 203.732 87.2618C203.94 87.5965 204.226 87.857 204.59 88.0433C204.954 88.2297 205.374 88.3229 205.848 88.3229Z" fill="black"/>
<path d="M227.945 38.058V51.0706H225.194V40.6694H225.118L222.138 42.5374V40.0975L225.359 38.058H227.945Z" fill="black"/>
<path d="M229.277 82.7061V95.7188H227.701V84.3581H227.625L224.448 86.4676V84.8664L227.701 82.7061H229.277ZM237.264 95.8967C236.306 95.8967 235.491 95.6362 234.817 95.1152C234.144 94.5899 233.629 93.8296 233.273 92.8341C232.918 91.8345 232.74 90.6272 232.74 89.2125C232.74 87.8061 232.918 86.6053 233.273 85.6098C233.634 84.6102 234.15 83.8477 234.824 83.3224C235.502 82.793 236.315 82.5282 237.264 82.5282C238.213 82.5282 239.024 82.793 239.697 83.3224C240.375 83.8477 240.892 84.6102 241.248 85.6098C241.608 86.6053 241.788 87.8061 241.788 89.2125C241.788 90.6272 241.61 91.8345 241.254 92.8341C240.898 93.8296 240.383 94.5899 239.71 95.1152C239.036 95.6362 238.221 95.8967 237.264 95.8967ZM237.264 94.4988C238.213 94.4988 238.95 94.0414 239.475 93.1264C240 92.2115 240.263 90.9068 240.263 89.2125C240.263 88.0857 240.142 87.1263 239.901 86.3342C239.663 85.5421 239.32 84.9384 238.871 84.5233C238.426 84.1082 237.891 83.9006 237.264 83.9006C236.323 83.9006 235.588 84.3645 235.059 85.2921C234.529 86.2156 234.265 87.5223 234.265 89.2125C234.265 90.3392 234.383 91.2965 234.62 92.0844C234.858 92.8723 235.199 93.4716 235.643 93.8825C236.092 94.2934 236.633 94.4988 237.264 94.4988ZM244.259 95.7188L250.079 84.2056V84.104H243.37V82.7061H251.706V84.1802L245.911 95.7188H244.259Z" fill="black"/>
<path d="M284.556 82.7061V95.7188H282.98V84.3581H282.904L279.727 86.4676V84.8664L282.98 82.7061H284.556ZM292.542 95.8967C291.585 95.8967 290.77 95.6362 290.096 95.1152C289.423 94.5899 288.908 93.8296 288.552 92.8341C288.196 91.8345 288.018 90.6272 288.018 89.2125C288.018 87.8061 288.196 86.6053 288.552 85.6098C288.912 84.6102 289.429 83.8477 290.102 83.3224C290.78 82.793 291.594 82.5282 292.542 82.5282C293.491 82.5282 294.302 82.793 294.976 83.3224C295.654 83.8477 296.17 84.6102 296.526 85.6098C296.886 86.6053 297.066 87.8061 297.066 89.2125C297.066 90.6272 296.888 91.8345 296.533 92.8341C296.177 93.8296 295.662 94.5899 294.989 95.1152C294.315 95.6362 293.5 95.8967 292.542 95.8967ZM292.542 94.4988C293.491 94.4988 294.228 94.0414 294.754 93.1264C295.279 92.2115 295.541 90.9068 295.541 89.2125C295.541 88.0857 295.421 87.1263 295.179 86.3342C294.942 85.5421 294.599 84.9384 294.15 84.5233C293.705 84.1082 293.169 83.9006 292.542 83.9006C291.602 83.9006 290.867 84.3645 290.338 85.2921C289.808 86.2156 289.543 87.5223 289.543 89.2125C289.543 90.3392 289.662 91.2965 289.899 92.0844C290.136 92.8723 290.477 93.4716 290.922 93.8825C291.371 94.2934 291.911 94.4988 292.542 94.4988ZM303.801 95.8967C303.268 95.8882 302.734 95.7866 302.2 95.5917C301.666 95.3969 301.179 95.0686 300.739 94.6069C300.298 94.1409 299.945 93.5119 299.678 92.7198C299.411 91.9234 299.277 90.9238 299.277 89.7208C299.277 88.5686 299.385 87.5477 299.601 86.6582C299.818 85.7644 300.131 85.0126 300.542 84.4026C300.953 83.7884 301.448 83.3224 302.029 83.0048C302.613 82.6871 303.272 82.5282 304.005 82.5282C304.733 82.5282 305.381 82.6744 305.949 82.9666C306.521 83.2547 306.987 83.6571 307.347 84.1739C307.707 84.6906 307.94 85.2858 308.046 85.9593H306.495C306.351 85.3747 306.072 84.8897 305.657 84.5043C305.242 84.1188 304.691 83.9261 304.005 83.9261C302.997 83.9261 302.202 84.3645 301.622 85.2413C301.046 86.1181 300.756 87.3487 300.752 88.9329H300.853C301.09 88.5728 301.372 88.2657 301.698 88.0116C302.029 87.7532 302.393 87.5541 302.791 87.4143C303.189 87.2745 303.611 87.2046 304.056 87.2046C304.801 87.2046 305.483 87.391 306.101 87.7638C306.72 88.1323 307.215 88.6427 307.588 89.2951C307.961 89.9431 308.147 90.6865 308.147 91.5252C308.147 92.3301 307.967 93.0671 307.607 93.7364C307.247 94.4014 306.741 94.9309 306.089 95.3248C305.441 95.7145 304.678 95.9052 303.801 95.8967ZM303.801 94.4988C304.335 94.4988 304.814 94.3654 305.237 94.0986C305.665 93.8317 306.002 93.4738 306.248 93.0248C306.498 92.5757 306.622 92.0759 306.622 91.5252C306.622 90.9873 306.502 90.498 306.26 90.0575C306.023 89.6127 305.695 89.259 305.275 88.9964C304.86 88.7338 304.386 88.6025 303.852 88.6025C303.45 88.6025 303.075 88.683 302.728 88.8439C302.38 89.0007 302.075 89.2167 301.813 89.492C301.554 89.7674 301.351 90.0829 301.203 90.4387C301.054 90.7903 300.98 91.161 300.98 91.5507C300.98 92.0674 301.101 92.5503 301.342 92.9993C301.588 93.4483 301.923 93.8105 302.346 94.0858C302.774 94.3612 303.259 94.4988 303.801 94.4988Z" fill="black"/>
<path d="M341.96 97.5888V110.602H340.385V99.2408H340.308L337.131 101.35V99.7491L340.385 97.5888H341.96ZM349.947 110.779C348.99 110.779 348.174 110.519 347.501 109.998C346.827 109.473 346.313 108.712 345.957 107.717C345.601 106.717 345.423 105.51 345.423 104.095C345.423 102.689 345.601 101.488 345.957 100.493C346.317 99.4929 346.834 98.7304 347.507 98.2052C348.185 97.6757 348.998 97.4109 349.947 97.4109C350.896 97.4109 351.707 97.6757 352.381 98.2052C353.058 98.7304 353.575 99.4929 353.931 100.493C354.291 101.488 354.471 102.689 354.471 104.095C354.471 105.51 354.293 106.717 353.937 107.717C353.582 108.712 353.067 109.473 352.393 109.998C351.72 110.519 350.904 110.779 349.947 110.779ZM349.947 109.382C350.896 109.382 351.633 108.924 352.158 108.009C352.684 107.094 352.946 105.79 352.946 104.095C352.946 102.968 352.825 102.009 352.584 101.217C352.347 100.425 352.004 99.8212 351.555 99.406C351.11 98.9909 350.574 98.7834 349.947 98.7834C349.007 98.7834 348.272 99.2472 347.742 100.175C347.213 101.098 346.948 102.405 346.948 104.095C346.948 105.222 347.067 106.179 347.304 106.967C347.541 107.755 347.882 108.354 348.327 108.765C348.776 109.176 349.316 109.382 349.947 109.382ZM360.952 110.779C360.206 110.779 359.535 110.631 358.938 110.335C358.341 110.038 357.862 109.631 357.502 109.115C357.142 108.598 356.945 108.009 356.911 107.348H358.436C358.495 107.937 358.762 108.424 359.236 108.81C359.715 109.191 360.287 109.382 360.952 109.382C361.486 109.382 361.96 109.257 362.375 109.007C362.795 108.757 363.123 108.414 363.36 107.977C363.602 107.537 363.722 107.039 363.722 106.484C363.722 105.917 363.597 105.41 363.347 104.966C363.102 104.517 362.763 104.163 362.331 103.905C361.899 103.646 361.405 103.515 360.85 103.511C360.452 103.506 360.043 103.568 359.624 103.695C359.205 103.818 358.859 103.977 358.588 104.171L357.114 103.994L357.902 97.5888H364.663V98.9867H359.224L358.766 102.824H358.843C359.109 102.613 359.444 102.437 359.846 102.297C360.249 102.157 360.668 102.087 361.104 102.087C361.901 102.087 362.61 102.278 363.233 102.659C363.86 103.036 364.351 103.553 364.707 104.21C365.067 104.866 365.247 105.616 365.247 106.459C365.247 107.289 365.061 108.03 364.688 108.683C364.32 109.331 363.811 109.843 363.163 110.22C362.515 110.593 361.778 110.779 360.952 110.779Z" fill="black"/>
<path d="M405.743 108.219V121.232H404.168V109.871H404.091L400.915 111.981V110.38L404.168 108.219H405.743ZM413.73 121.41C412.773 121.41 411.958 121.149 411.284 120.628C410.611 120.103 410.096 119.343 409.74 118.347C409.384 117.348 409.206 116.14 409.206 114.726C409.206 113.319 409.384 112.119 409.74 111.123C410.1 110.123 410.617 109.361 411.29 108.836C411.968 108.306 412.781 108.041 413.73 108.041C414.679 108.041 415.49 108.306 416.164 108.836C416.842 109.361 417.358 110.123 417.714 111.123C418.074 112.119 418.254 113.319 418.254 114.726C418.254 116.14 418.076 117.348 417.72 118.347C417.365 119.343 416.85 120.103 416.176 120.628C415.503 121.149 414.688 121.41 413.73 121.41ZM413.73 120.012C414.679 120.012 415.416 119.555 415.941 118.64C416.467 117.725 416.729 116.42 416.729 114.726C416.729 113.599 416.609 112.64 416.367 111.847C416.13 111.055 415.787 110.452 415.338 110.037C414.893 109.621 414.357 109.414 413.73 109.414C412.79 109.414 412.055 109.878 411.525 110.805C410.996 111.729 410.731 113.036 410.731 114.726C410.731 115.852 410.85 116.81 411.087 117.598C411.324 118.386 411.665 118.985 412.11 119.396C412.559 119.807 413.099 120.012 413.73 120.012ZM420.364 118.563V117.267L426.082 108.219H427.022V110.227H426.387L422.066 117.064V117.166H429.767V118.563H420.364ZM426.489 121.232V118.169V117.566V108.219H427.988V121.232H426.489Z" fill="black"/>
</svg>
