<svg width="455" height="70" viewBox="0 0 455 70" fill="none" xmlns="http://www.w3.org/2000/svg">
<path d="M8.39665 39.4535C9.66902 38.5707 11.1391 37.7832 12.4085 35.9937C13.9146 33.8349 14.7024 32.5267 15.6697 29.4361C16.1079 28.036 17.0523 27.1275 17.6262 26.1094C18.2154 25.0641 18.9665 24.1404 19.4202 23.1732C19.9106 22.1279 20.2707 21.0167 20.7904 20.0412C21.3473 18.9959 22.5339 17.4222 23.7286 16.5187C24.9413 15.6016 26.3733 14.702 27.4821 14.3009L27.5361 14.2813C28.9577 13.767 30.4954 13.2106 32.8808 13.2262C38.119 13.2605 42.0562 13.5227 44.5122 13.2262C45.8824 13.0608 46.9229 12.6689 48.1325 12.2132C49.3432 11.7571 52.6899 11.3215 54.6245 11.9881C55.6698 12.3483 56.7242 13.2399 59.2608 12.9649C60.7592 12.8024 61.734 12.4817 63.1728 12.0831C64.3493 11.7571 65.8132 11.6158 67.1534 11.2022C68.5265 10.7784 71.9907 10.2674 74.2003 10.8459C75.7066 11.2404 77.216 11.8442 78.31 12.4139C81.1699 13.903 83.0868 16.1319 84.3381 19.0492C85.5981 23.9086 84.9692 28.6167 86.0323 36.058C87.0953 40.3102 87.7573 44.7869 87.7756 47.8618C87.798 51.6219 87.1674 54.7231 86.0323 57.3191C85.7044 58.3967 84.5368 59.5185 83.3916 60.3398C82.3463 61.0896 81.0175 62.2478 79.6724 62.6869C78.1612 63.1802 76.2618 64.3219 72.9524 64.383C67.7024 64.4799 64.0799 64.3366 63.1249 64.3165C61.5931 64.2842 60.4178 64.2365 59.8686 64.0874C58.6608 63.7596 57.6387 63.3106 56.4107 62.9453C55.2 62.5851 53.8549 62.2876 50.8603 60.7568C49.1984 59.9072 47.9971 58.4262 42.1759 59.0322C39.3366 59.3278 37.0052 59.7546 35.4647 59.9787C34.1258 60.1734 32.8456 60.7434 30.8519 60.7284C26.2958 60.6941 24.6254 60.9824 23.4272 59.779C22.514 58.8619 22.1462 56.9993 20.9157 55.7319C19.9027 54.6886 19.032 53.0057 17.4559 53.061C15.5845 53.1265 13.3974 53.5015 11.8692 53.4857C8.54934 53.4515 7.23606 53.4627 5.9038 52.6L5.78878 52.5255C3.72836 51.1916 2.21602 50.2126 2.06127 48.9121C1.96438 48.0978 1.9717 47.2335 2.1611 46.4985C2.48898 45.2261 2.90977 43.8037 4.93877 42.1597C6.14555 41.182 7.04774 40.3895 8.39665 39.4535Z" stroke="black" stroke-width="2.1261" stroke-linecap="round"/>
<path d="M14.1428 38.5374C16.6533 37.2044 18.0855 36.9594 19.3576 36.8462C21.1861 36.8462 22.6221 37.694 23.3122 37.1665C23.9765 36.6587 24.076 35.4609 23.6601 33.2777C23.0261 29.9497 23.9903 28.2272 25.1321 27.0872C26.3741 25.8471 27.6091 24.6757 28.7858 24.1539C29.9642 23.6312 32.8369 22.8421 34.7894 23.6028C35.3746 23.8309 35.9226 24.1749 36.1899 24.747C36.6783 25.7923 36.4439 27.0133 37.0698 30.8534C37.3948 32.847 37.4372 34.7268 36.969 35.7422C36.4121 36.9499 34.8946 37.828 34.7512 39.5632C34.6543 40.7357 34.5386 41.8245 34.9841 42.102C35.5058 42.4269 36.5548 44.3084 43.3152 43.3059C45.7571 42.9437 48.1349 42.6334 48.4232 41.181C48.5524 40.5302 48.7104 39.5946 48.1903 38.4043C47.1782 36.0886 45.6733 34.3132 44.6345 32.7971C43.8505 31.653 41.4241 28.5101 41.9302 26.2709C42.2924 24.6687 43.3233 22.832 44.4779 21.8362C45.4243 21.02 46.1464 19.7609 47.9387 19.3248C49.8052 18.8706 52.0774 18.6818 53.0585 19.4931C54.37 20.5776 55.8609 22.0671 55.9595 23.3445C56.1866 26.2856 56.3443 30.9383 56.579 32.0229C56.8404 33.2307 56.9774 34.8214 57.9845 34.9543C58.2145 34.9846 58.4729 34.8554 58.6686 34.6577C58.8644 34.46 59.0158 34.2089 59.0915 33.9393C59.3851 32.894 59.5972 31.8 60.0056 30.7408C60.5596 29.304 59.9254 27.9211 60.9178 21.9556C61.2799 19.7789 61.8124 18.5953 62.8126 17.889C63.8286 17.1715 65.1485 16.7038 66.2402 16.2584C67.677 15.6721 69.3467 15.1642 70.6768 15.7397C72.05 16.3337 73.648 17.3901 73.7393 18.6162C73.8704 20.3779 74.1957 21.5363 74.1631 22.5938C74.1288 23.7056 74.2286 25.1868 73.3772 26.4441C72.6255 27.554 71.9048 28.5534 71.0898 30.0067C69.427 32.9723 68.7236 34.7357 67.1768 35.9702C66.0327 36.8834 64.1429 37.4205 63.9499 39.1717C63.8207 40.3442 63.7671 41.4428 64.2837 41.644C64.6155 41.7732 65.2066 41.836 65.6206 41.7399C66.894 41.4443 67.8851 40.7497 68.8172 39.7452C70.0886 38.375 71.2048 37.5848 72.3074 35.7647C73.4202 33.9276 74.1399 30.4309 75.5695 29.8961C76.0902 29.7014 76.7351 29.5975 77.2657 29.9333C77.527 30.0987 77.8113 30.3521 77.8177 31.285C77.848 35.7128 77.6307 38.0541 77.5221 39.8206C77.3273 42.9907 77.7474 47.9242 77.4898 50.1972C77.3273 51.631 76.9787 53.0896 75.9542 54.0759C75.0371 54.9587 73.9228 55.9682 72.6578 56.6197C71.5802 57.1746 70.5993 57.8415 69.1666 58.3481C68.0567 58.7406 67.0664 59.5229 65.5404 59.5216C63.163 59.5197 62.0559 59.5391 61.0764 59.1614C59.9645 58.7328 58.0731 57.2083 58.0452 55.501C58.0149 53.6433 58.5236 52.4894 58.5032 51.0947C58.469 48.7496 58.5313 47.3083 57.4873 46.796C57.224 46.6669 56.8844 46.6153 56.6064 46.7334C55.5289 47.1915 54.4904 47.7812 54.0647 48.824C53.6379 49.8693 53.7768 52.3322 52.8236 53.7177C52.4654 54.2384 50.4651 54.2984 47.7254 54.53C45.8041 54.6925 44.4875 54.6953 43.2623 54.9215C42.0222 55.1506 41.1496 55.9288 39.9356 56.2282C38.2247 56.65 35.7852 56.5812 34.6494 55.8318C33.4093 55.0135 32.5067 54.0986 31.8786 53.0893C31.1269 51.8816 30.2725 50.926 30.02 49.238C29.7606 47.5047 29.936 45.8539 29.4317 44.7378C29.2986 44.4432 29.0796 44.0873 28.7779 44.0223C27.7326 43.7972 26.3059 43.5918 25.3856 44.7456C24.9961 45.234 24.7062 45.7457 24.4734 46.2793L24.4586 46.3132C24.0017 47.3607 23.278 49.0199 21.7633 49.5395C20.6192 49.9319 17.6015 50.28 15.6295 49.9936C14.2887 49.7988 12.7148 49.9875 11.7802 49.1108C10.7691 48.1624 9.28477 47.0342 9.86085 45.2584C10.2523 44.0517 10.2295 42.8464 11.004 41.8348C11.7557 40.8531 12.4936 39.4132 14.1428 38.5374Z" stroke="black" stroke-width="2.1261" stroke-linecap="round"/>
<circle cx="32.5608" cy="30.4239" r="1.80719" fill="black"/>
<circle cx="17.6781" cy="45.3066" r="1.80719" fill="black"/>
<circle cx="41.0652" cy="51.6849" r="1.80719" fill="black"/>
<circle cx="49.5696" cy="26.1717" r="1.80719" fill="black"/>
<circle cx="66.5784" cy="21.9194" r="1.80719" fill="black"/>
<circle cx="68.7045" cy="51.6849" r="1.80719" fill="black"/>
<path d="M100.288 7.94496C98.3977 8.95795 97.0322 9.45305 95.3314 10.8166L89.2651 16.7213C87.1166 18.7164 85.9505 21.4655 85.5734 25.4275C85.4567 27.8947 85.8305 31.1967 86.4669 36.058C87.3754 42.9975 87.8549 49.9513 88.6818 53.7177C88.9267 54.8333 88.9493 56.0628 89.3346 57.0787C89.7927 58.2864 90.1824 59.4591 91.0327 60.1764C91.8833 60.8938 92.7526 61.9256 94.0032 62.2631C95.211 62.589 96.9299 64.1433 100.271 63.6636C101.866 63.4346 102.935 63.3318 103.953 63.0764C105.131 62.7808 108.924 62.5162 111.495 62.6859C114.003 62.8513 114.995 63.5185 116.253 63.8614C117.33 64.155 118.608 65.6768 126.151 64.4134C128.488 64.0219 129.673 63.6564 130.771 63.1077C131.816 62.5851 133.02 61.4496 137.074 61.9685C138.863 62.1975 139.957 62.3218 140.949 62.7857C142.061 63.3054 143.252 63.3011 144.277 63.0764C145.322 62.8474 146.531 62.6659 147.605 62.129C148.65 61.6063 149.591 60.9782 150.344 59.9738C151.128 58.9285 151.883 57.9498 152.498 56.8086C153.148 55.6008 153.65 54.5737 153.637 52.7487C153.603 47.9666 153.293 46.6708 153.31 44.9893C153.344 41.5069 153.651 40.3407 153.637 38.2291C153.603 33.0898 153.347 32.048 153.244 30.6762C153.082 28.5014 152.95 25.393 152.689 24.1842C152.428 22.9735 152.146 21.6782 151.94 20.6285C151.708 19.45 150.961 18.1924 150.502 17.0052C149.883 15.4059 149.552 14.0079 148.74 12.6341C147.989 11.3617 147.168 10.3043 146.031 9.70082C144.986 9.14588 144.071 8.26801 142.866 7.74334C141.591 7.1884 138.586 6.40557 136.667 7.16001L136.593 7.18934C135.543 7.60223 134.556 7.99047 133.273 8.26892C132.524 8.43139 128.205 8.71174 122.36 8.46271C120.063 8.36484 119.463 8.1903 118.788 7.90679C117.385 7.31759 116.177 6.87762 114.97 6.27425C113.275 5.42666 112.132 4.59367 110.693 4.61333C108.185 4.64759 107.025 4.44864 105.902 5.04006C104.662 5.69288 102.306 6.86338 100.288 7.94496Z" stroke="black" stroke-width="2.1261" stroke-linecap="round"/>
<path d="M90.8672 30.4149C91.0962 29.1082 91.1769 27.6748 92.0769 26.9257C94.1628 24.88 95.1557 23.6064 96.4803 21.016C96.9728 20.0529 97.2956 18.671 98.4397 17.4329C98.9927 17.1735 99.5176 16.9132 100.038 16.9787C100.559 17.0443 101.19 17.0256 101.704 17.5053C103.17 18.8745 104.495 20.6417 104.733 22.3657C104.928 23.7761 105.9 25.6826 105.057 29.6798C104.665 31.5355 104.329 32.8294 104.373 34.413C104.474 38.0657 104.718 40.9991 106.205 41.548C107.876 42.1646 109.753 42.0712 111.101 41.5099C112.828 40.7905 114.553 39.89 115.24 38.375C115.565 37.6585 115.577 37.0116 115.53 36.484C115.432 35.3722 115.039 34.1301 114.092 32.5661C113.145 31.0031 112.383 29.9491 111.744 28.8499C111.059 27.6715 110.091 26.4483 110.114 24.4034C110.15 21.1491 110.141 19.5968 111.26 18.9656C112.241 18.4126 113.337 17.3633 116.126 17.9252C117.593 18.2207 119.119 18.1135 120.429 19.4285C121.375 20.3779 122.355 21.3216 122.906 22.7249C123.395 23.9679 123.298 25.4501 123.754 26.9354C124.244 28.5327 124.321 30.0144 125.485 30.8788C125.748 31.0736 126.016 31.1831 126.268 31.1039C126.789 30.9404 127.315 30.5835 127.604 29.9911C128.226 28.7168 128.509 27.5272 128.81 26.174C129.071 24.9975 128.864 23.6454 129.43 20.5912C129.725 18.9959 129.716 17.6789 130.41 16.7135C131.162 15.6682 131.792 14.1124 133.414 14.0738C134.689 14.0435 135.982 14.3186 137.361 14.9253C138.471 15.4137 140.584 15.2758 141.602 17.2782C142.382 18.8119 142.443 20.3701 142.348 21.8783C142.249 23.4433 142.422 25.2157 141.89 26.7054C141.4 28.0786 141.196 29.612 140.322 30.9796C139.509 32.252 139.164 33.3122 138.199 34.276C136.502 35.9712 135.5 36.9522 134.315 37.5352C132.458 38.4493 130.662 39.3012 130.472 41.0293C130.375 41.9082 130.386 42.6474 130.605 43.1473C130.833 43.668 130.984 44.5067 131.688 44.5802C132.928 44.7094 134.322 44.7999 135.306 44.2503C136.713 43.4644 138.119 42.6539 139.091 41.966C140.761 40.7827 142.409 39.2226 142.972 37.9805C143.948 35.8302 144.437 34.8535 144.96 32.5661C145.318 30.9992 145.46 28.9754 146.331 27.7742C146.497 27.5462 146.75 27.4025 147.018 27.3191C147.538 27.1566 148.112 27.06 148.583 27.3553C149.104 27.6812 149.564 28.1879 149.723 28.8587C150.016 30.0987 150.59 31.2863 150.308 33.8855C150.146 35.3839 150.287 36.4526 149.917 38.7782C149.688 40.215 149.239 41.6341 149.199 43.7844C149.1 49.1528 148.724 50.3072 148.612 51.5322C148.513 52.6097 148.147 54.382 146.977 55.0869C145.898 55.7378 144.727 55.9981 143.682 56.2595C142.637 56.5208 140.001 56.5162 138.101 56.88C136.236 57.2372 134.432 57.611 132.675 57.5964C128.543 57.5622 125.808 58.1117 124.303 57.1697C123.782 56.8438 123.017 56.5817 122.87 56.0265C122.741 55.5381 122.63 54.8664 122.774 54.1659C123.003 53.056 123.601 52.0397 123.916 50.9694C124.244 49.8575 125.725 46.2227 123.879 45.4904C123.391 45.2966 122.424 45.2696 121.333 45.7224C119.993 46.2793 117.739 47.6822 116.865 49.6089C116.215 51.0438 115.952 52.2852 115.137 53.6531C114.516 54.6964 113.815 55.597 112.754 56.2281C111.708 56.8496 109.888 57.3112 108.414 57.434C106.075 57.6287 102.802 57.8588 99.994 57.3997C98.5934 57.1707 96.9939 57.3965 96.1485 56.5492C95.7257 56.1254 95.2226 55.7349 94.975 55.2103C94.42 54.0348 94.1489 51.8115 94.3584 50.1864C94.5531 48.6752 94.5914 46.6661 94.1274 45.6842C93.5705 44.5058 92.3682 43.3301 92.0397 42.1607C91.7461 41.1154 91.4042 39.8266 91.1579 38.2409C90.6382 34.8946 90.6521 31.642 90.8672 30.4149Z" stroke="black" stroke-width="2.1261" stroke-linecap="round"/>
<circle cx="104.848" cy="51.6849" r="1.80719" fill="black"/>
<circle cx="98.47" cy="32.55" r="1.80719" fill="black"/>
<circle cx="115.479" cy="24.0455" r="1.80719" fill="black"/>
<circle cx="136.74" cy="21.9194" r="1.80719" fill="black"/>
<circle cx="136.74" cy="51.6849" r="1.80719" fill="black"/>
<path d="M168.346 6.80179C167.301 7.45461 166.027 8.15431 164.823 8.85715C161.509 11.6078 158.071 12.8269 156.194 16.0898C153.719 20.3921 152.913 26.2462 153.503 33.9319C153.929 40.3102 152.722 46.282 153.929 52.0038C154.81 56.1821 156.435 59.8291 159.187 62.1339C160.291 63.0583 161.424 63.585 162.448 64.2871C163.398 64.938 164.841 65.4056 166.169 65.6877C167.222 65.9115 168.99 66.0642 170.562 66.1999L170.671 66.2094C171.815 66.3082 174.555 66.3618 176.613 66.2739C178.928 66.1751 180.228 65.9152 181.47 65.6534C182.71 65.3921 183.9 64.7229 188.132 65.1004C189.953 65.2629 191.067 65.6729 192.302 65.7856C193.739 65.9167 195.86 66.2155 197.325 65.8492C198.37 65.5878 199.528 65.2529 200.686 65.0662C201.894 64.8714 202.912 64.5215 204.014 64.2832C205.221 64.0219 207.739 63.6823 209.625 64.0894C210.835 64.3507 212.164 64.5766 213.834 64.2509C215.009 64.0219 216.22 64.0592 217.259 63.2702C218.336 62.452 219.753 61.2338 220.618 59.9738C221.335 58.9285 222.12 58.0757 222.574 56.8409C223.03 55.6008 223.48 54.5648 223.519 49.9202C223.551 46.0639 223.551 38.8291 223.518 35.0786C223.485 31.328 223.41 31.0701 223.388 30.408C223.289 27.4131 223.073 26.1163 222.996 24.6051C222.897 22.6486 222.869 20.6741 222.571 19.2249C222.31 17.9506 222.203 16.6278 221.952 15.3756C221.723 14.2314 221.846 12.7255 221.135 11.8531C220.415 10.9702 219.425 10.0288 218.391 9.14392C217.021 7.97139 216.024 7.27599 214.934 7.0915C212.824 6.73426 209.701 6.7482 208.474 6.96329C207.167 7.19231 205.755 7.69105 204.363 7.90973C203.123 8.1045 201.674 8.77981 198.488 8.46272C196.855 8.30024 195.38 8.30334 194.348 7.8745C193.007 7.31759 191.284 6.59378 189.714 5.75258C188.375 5.03517 187.257 4.48552 185.669 4.05741C184.46 3.73149 181.324 3.62927 179.208 3.76574C177.676 3.8646 176.541 4.17665 175.393 4.32069C174.348 4.45184 173.244 4.63413 172.161 5.07237C170.629 5.69288 169.364 6.16596 168.346 6.80179Z" stroke="black" stroke-width="2.1261" stroke-linecap="round"/>
<path d="M160.099 20.4983C161.182 19.5832 162.96 17.7003 165.455 18.3832C167.948 19.2916 169.036 20.1913 169.852 23.2143C170.185 24.4511 169.993 25.8068 170.374 29.6818C170.699 32.988 170.269 35.7438 169.684 36.9832C168.804 38.8487 167.549 40.9333 167.796 42.332C167.894 42.885 168.14 43.5878 168.746 43.9606C169.008 44.1221 169.268 44.1353 169.562 44.0888C170.18 43.991 170.993 43.7648 171.65 43.1062C172.856 41.8984 173.036 39.9069 174.719 39.4858C177.311 38.8369 181.535 38.9568 182.678 37.0664C183.427 35.8283 183.791 34.7753 183.618 34.1008C183.223 32.5652 182.322 31.2524 181.102 30.2534C180.025 29.3706 177.67 28.434 174.966 25.1277C173.627 23.4903 171.474 20.2953 172.136 17.3301C172.332 16.4531 173.053 15.2298 174.425 14.2324C175.859 13.19 176.849 12.2596 178.599 12.084C179.907 11.9529 181.842 11.4486 183.755 12.2172C185.388 12.8729 187.945 13.2703 188.976 15.5233C190.603 19.0781 190.945 22.2188 190.631 24.3574C190.274 26.7906 189.84 30.1829 190.996 31.1724C191.26 31.3985 191.669 31.4519 191.975 31.2987C192.56 31.005 193.851 30.3188 194.321 28.7187C194.647 27.6088 193.97 21.6832 195.136 17.9849C195.496 16.8427 195.774 15.4406 196.836 14.986C197.52 14.6934 198.525 14.7317 199.612 14.5309C201.572 14.1688 203.276 13.3897 205.025 13.6187C206.267 13.7812 208.088 13.594 211.031 15.5801C212.53 16.5921 213.895 17.4212 214.484 18.6788C215.005 19.7906 216.285 22.0021 216.079 24.4896L216.074 24.5509C215.914 26.4916 215.75 28.4634 215.065 29.8071C214.085 31.7313 213.212 33.1088 211.638 33.6848C210.033 34.2721 207.612 34.2262 205.634 34.8906C204.364 35.3174 202.335 35.7942 202.311 37.2122C202.281 39.0405 201.846 40.8519 202.873 41.4188C204.701 42.4269 207.584 43.2996 209.923 42.0296C212.206 40.7905 215.282 39.3623 216.409 40.6995C216.766 41.1233 217.719 41.5652 217.976 42.5953C218.657 45.324 218.549 48.9646 217.741 50.9146C216.954 52.8133 215.921 54.9141 214.738 55.8376C213.693 56.6539 212.539 57.9408 210.561 58.5116C209.32 58.8698 208.2 59.5228 206.641 59.5216C203.968 59.5197 202.609 59.5835 201.59 59.1605C200.249 58.6036 198.917 57.7801 197.872 57.3009C196.726 56.7753 195.555 55.604 194.937 54.4928C194.318 53.381 193.903 51.961 193.83 50.1414C193.664 46.0091 193.739 44.4709 192.587 43.8588C192.098 43.5995 191.06 43.0643 190.27 43.7982C189.424 44.5841 188.317 47.148 188.153 49.2194C187.988 51.3061 187.48 52.8149 186.552 54.4038C185.768 55.7456 184.876 58.1329 183.419 58.7729C182.307 59.2613 180.634 59.9695 178.682 59.9454C175.91 59.9112 172.825 60.2071 170.76 59.5852C169.45 59.1908 167.984 58.5925 166.976 57.8215C165.864 56.971 164.01 56.0555 162.767 54.3617C161.953 53.2518 161.019 52.1708 161.532 48.8768C161.828 46.98 162.999 40.526 161.856 37.1026C161.628 36.4194 160.93 33.9992 159.698 30.6635C158.496 27.4092 158.414 25.7217 158.53 23.9865C158.629 22.5194 158.984 21.4409 160.099 20.4983Z" stroke="black" stroke-width="2.1261" stroke-linecap="round"/>
<circle cx="175.01" cy="53.811" r="1.80719" fill="black"/>
<circle cx="164.379" cy="28.2978" r="1.80719" fill="black"/>
<circle cx="181.388" cy="21.9195" r="1.80719" fill="black"/>
<circle cx="204.775" cy="21.9195" r="1.80719" fill="black"/>
<circle cx="206.901" cy="53.811" r="1.80719" fill="black"/>
<path d="M237.918 8.31982C236.774 9.13609 235.491 9.80061 234.296 9.88286C231.001 10.1704 228.39 10.8156 226.355 11.7741C223.107 13.3041 222.844 18.6226 223.107 23.3014C222.765 38.263 223.968 54.7415 226.575 61.5713C228.008 64.4595 228.692 65.9291 230.607 66.8865C232.733 67.9496 234.318 68.4276 237.704 67.3985C240.524 66.5411 243.524 65.0182 245.955 64.4613C247.951 64.0042 250.039 63.4217 251.434 63.5834C252.837 63.7458 253.897 63.7523 254.957 63.9749C256.364 64.2705 257.913 64.7344 259.361 64.9213C260.87 65.1161 262.938 65.3579 264.681 65.4753C266.148 65.5741 267.442 65.8019 269.053 65.9001C272.247 66.0948 276.809 66.169 280.997 65.6701C282.919 65.441 284.464 65.4778 285.823 64.7863C287.876 63.7419 289.114 63.0742 289.766 61.7169C293.106 56.7776 293.78 52.8494 293.645 44.5518C293.6 41.7463 294.053 38.7492 294.037 35.6629C294.003 29.0906 293.763 27.7959 293.71 25.4262C293.611 21.0023 293.389 19.3105 293.319 17.244C293.22 14.3469 293.189 12.7821 292.469 11.3461C291.912 10.2362 291.366 8.50495 290.018 8.02032C288.385 7.43308 285.33 6.9794 282.542 7.79815C279.772 8.61148 278.361 8.9354 277.001 9.32988C275.199 9.85252 273.136 10.4922 271.516 10.4701C269.006 10.4359 267.051 10.0427 265.615 9.55499C263.38 8.79548 260.447 7.51566 259.221 6.74796C257.915 5.92974 256.425 4.92647 254.751 4.49784C253.479 4.17192 252.505 3.70689 251.392 3.45352C249.681 3.06398 247.219 3.20312 245.747 3.61991C244.474 3.98009 243.344 4.48677 242.091 5.35228C240.297 6.59136 239.168 7.42786 237.918 8.31982Z" stroke="black" stroke-width="2.1261" stroke-linecap="round"/>
<path d="M230.293 24.2958C231.434 22.8306 232.258 21.6305 234.569 21.3654C236.522 21.1597 237.53 21.3384 238.805 23.4267C239.482 24.5369 239.429 25.9076 240.045 27.1126C240.834 28.6561 242.188 30.6216 241.934 32.1375C241.609 34.0783 241.811 37.6675 242.819 38.8565C243.177 39.2793 243.68 39.7435 244.421 39.8C245.267 39.8646 246.157 39.8145 246.933 39.4046C248.664 38.4905 250.202 37.7404 250.583 36.3695C250.938 35.0923 250.802 33.3714 250.417 32.0298C250.022 30.6566 249.925 28.9642 248.782 27.5922C247.473 26.0213 246.319 24.5849 245.651 23.5803C244.803 22.306 243.194 20.8344 242.487 18.2266C242 16.4336 241.734 14.6062 242.689 13.5972C243.833 12.3894 244.784 11.1528 245.986 11.1543C247.622 11.1562 249.171 11.3839 250.392 11.4488C252.25 11.5477 253.88 11.6116 255.774 12.6909C257.21 13.5091 258.413 14.7954 259.099 16.1204C260.08 18.0152 260.978 19.5539 261.185 21.0454C261.379 22.4509 261.801 23.7583 261.542 28.0982C261.379 30.8171 261.054 34.0094 262.395 35.333C262.691 35.6247 263.014 35.6893 263.308 35.655C263.603 35.6208 263.906 35.5395 264.157 35.2606C265.365 33.9178 266.546 32.5498 266.568 29.9969C266.598 26.4833 266.216 24.1351 266.305 22.1426C266.406 19.8826 266.812 17.3209 267.875 16.4042C268.822 15.5879 269.978 13.835 271.896 13.927C275.426 14.0963 278.21 14.4329 279.623 15.4989C281.22 16.7037 283.058 17.2551 284.09 19.9384C284.806 21.801 285.674 25.491 284.671 27.9944C284.411 28.6443 283.401 30.184 281.534 31.5845C279.701 32.9586 278.044 34.4331 276.969 35.0394C275.465 35.887 272.51 35.9806 271.064 38.7616C270.317 40.1974 269.534 42.6165 270.518 43.7502C270.717 43.9792 271.041 44.2492 271.434 44.2034C272.281 44.1045 274.15 44.1913 276.295 42.8302C277.897 41.8143 279.489 40.0127 280.86 38.0657C281.808 36.7209 282.819 34.7875 283.96 34.2183C284.546 33.9256 285.649 33.585 286.833 33.9628C287.355 34.1292 287.722 34.4278 287.906 34.8133C288.263 35.5621 288.905 36.7736 289.046 38.374C289.242 40.5889 289.554 42.2786 289.535 44.7103C289.501 49.1391 289.509 50.7359 289.141 51.8424C288.718 53.1167 288.389 54.6328 287.148 55.5616C285.445 56.836 283.304 58.0618 280.785 58.9197C279.247 59.4433 276.263 60.7887 273.147 59.0107C271.03 57.803 269.769 57.0265 269.107 55.6791C267.968 53.3634 267.751 51.9174 267.183 50.3596C266.136 47.487 265.103 45.2129 263.787 45.2144C262.025 45.2164 259.104 45.8227 257.981 47.8658C256.744 50.1179 256.655 51.8364 255.633 53.4114C254.125 55.7359 251.925 59.5452 249.199 60.3898C246.365 61.2677 243.824 61.7705 241.439 61.2002C239.51 60.7392 236.591 58.6558 234.982 56.3671C233.971 54.9294 233.43 53.5834 232.829 52.3181C232.209 51.0144 230.441 47.2171 229.697 42.2909C229.21 39.0738 228.548 37.6322 228.918 31.236C229.081 28.4329 228.9 26.084 230.293 24.2958Z" stroke="black" stroke-width="2.1261" stroke-linecap="round"/>
<circle cx="236.667" cy="32.55" r="1.80719" fill="black"/>
<circle cx="243.045" cy="53.811" r="1.80719" fill="black"/>
<circle cx="253.676" cy="21.9195" r="1.80719" fill="black"/>
<circle cx="274.937" cy="24.0456" r="1.80719" fill="black"/>
<circle cx="277.063" cy="51.6849" r="1.80719" fill="black"/>
<path d="M314.093 4.60158C312.137 5.41295 310.956 5.38335 309.07 5.15066C301.051 4.86672 296.926 5.3474 293.327 12.6709C292.264 17.9862 294.163 27.7858 294.176 33.9319C294.191 40.9017 292.544 53.0669 293.327 55.5518C295.992 64.0066 300.798 66.2722 317.242 64.429C320.106 64.1079 322.511 63.3824 324.124 62.9609C326.379 62.3717 329.102 61.6357 330.875 61.3959C332.315 61.2011 334.017 61.2013 335.998 61.4301C337.404 61.5926 339.5 61.6613 341.054 61.9851C342.627 62.313 344.588 62.6004 345.914 62.8004C346.992 62.9629 348.229 63.8648 352.38 63.1253C354.039 62.8298 355.368 62.4078 356.255 61.0005C357.037 59.7604 358.093 57.5775 358.242 55.5518C358.341 54.2129 358.427 51.8579 358.667 49.515C358.862 47.6162 359.604 45.7796 359.024 37.4628L359.007 37.2094C358.782 33.9826 358.525 30.2998 358.503 26.7142C358.47 21.4956 358.413 17.8677 358.24 17.2498C358.012 16.4355 357.795 15.2423 357.523 13.9857C357.173 12.3682 356.521 11.231 355.669 9.74255L355.597 9.61664C354.943 8.47445 353.819 6.95147 352.365 6.42203C351.024 5.93364 349.428 5.26763 347.404 5.64198C345.805 5.93756 343.762 6.19561 341.695 7.01417C339.796 7.76585 337.266 9.27282 332.326 8.51164C330.408 8.21606 329.193 8.1065 327.994 7.17175C326.818 6.25467 325.74 4.83517 324.602 4.03978C323.291 3.1227 321.139 1.27957 319.444 1.79357C317.618 2.34754 316.09 3.77343 314.093 4.60158Z" stroke="black" stroke-width="2.1261" stroke-linecap="round"/>
<path d="M300.729 29.1934C301.249 28.8362 301.751 28.3794 302.594 28.3801C307.745 27.842 309.661 28.7118 310.087 33.8669C310.187 35.0739 308.732 36.5662 309.798 37.7809C310.254 38.3006 310.794 39.1404 311.726 39.3116C312.605 39.4731 313.545 39.591 314.304 39.11C315.281 38.4904 316.431 37.8302 316.451 36.5535C316.514 32.4849 316.228 31.273 315.63 29.903C314.423 27.1371 313.981 26.0725 311.746 23.2515C310.371 21.5152 308.485 19.3457 309.208 16.5608C309.733 14.5426 310.408 11.7421 312.279 10.9565C313.519 10.4358 314.867 8.90972 318.683 10.0815C321.544 10.9605 324.281 11.8588 325.229 13.5747C326.242 15.4078 326.663 19.1894 326.596 21.8323C326.563 23.1027 325.826 25.8386 325.583 29.5457C325.389 32.5045 325.37 34.1131 325.686 34.55C325.851 34.7791 326.109 34.9729 326.372 35.0698C326.634 35.1666 326.914 35.2209 327.221 35.0668C328.591 34.3797 329.873 33.4395 330.251 32.2265C330.414 31.7058 329.704 27.9866 330.545 22.7455C331.203 18.6455 331.876 16.19 333.257 15.5889C335.059 14.8049 339.276 14.2012 342.688 14.941C345.113 15.4666 347.758 16.2604 349.016 16.8671L349.124 16.9193C350.907 17.7788 352.448 18.5219 352.959 19.773C353.252 20.4895 353.821 21.6119 353.281 22.581C351.928 25.0073 349.582 27.9636 347.241 30.2475C345.739 31.7137 344.214 32.5133 342.968 33.6711C341.566 34.9748 339.235 36.8964 339.516 38.8585C339.614 39.5416 339.835 40.3621 340.465 40.5184C340.986 40.6476 341.58 40.7246 342.031 40.4176C343.143 39.661 344.362 38.5637 345.556 37.7084C346.929 36.7248 348.147 35.3356 349.472 33.724C350.973 31.8977 351.755 29.9283 353.126 29.7826C354.039 29.6857 354.964 29.5523 355.309 29.949C355.992 30.7349 356.057 31.7984 356.35 33.5087C356.579 34.8456 356.579 37.0628 356.545 39.8832C356.513 42.5561 356.101 45.6986 355.432 48.3297C354.945 50.2471 354.537 51.5825 353.998 52.5295C353.181 53.9624 352.525 55.3222 350.897 56.3759C349.787 57.0943 348.67 58.5403 343.417 57.6444C340.904 57.2157 339.22 55.9736 338.009 55.3258C336.543 54.5418 334.74 54.6716 333.703 53.0384C332.628 51.3433 331.932 48.7038 330.115 47.1043C329.821 46.845 329.546 46.7299 329.267 46.8479C328.648 47.1092 327.224 47.4582 325.809 50.6386C324.994 52.4708 324.554 54.604 323.164 55.2993C321.4 56.1822 317.384 56.2113 315.173 56.8957C313.899 57.2901 312.745 57.9854 310.99 58.629C307.893 59.7643 306.101 59.8677 304.307 59.1761C303.461 58.8502 302.603 58.0991 301.96 56.9191C301.375 55.8455 301.355 53.1214 301.083 49.8018C300.92 47.8198 301.014 46.5994 300.592 45.1713C299.676 42.0726 297.466 38.9201 298.671 34.2408C299.292 31.8311 299.479 30.0506 300.729 29.1934Z" stroke="black" stroke-width="2.1261" stroke-linecap="round"/>
<circle cx="304.702" cy="36.8022" r="1.80719" fill="black"/>
<circle cx="311.08" cy="49.5588" r="1.80719" fill="black"/>
<circle cx="319.585" cy="19.7933" r="1.80719" fill="black"/>
<circle cx="340.846" cy="24.0455" r="1.80719" fill="black"/>
<circle cx="345.098" cy="51.6849" r="1.80719" fill="black"/>
<path d="M359.237 24.3645C359.374 22.9338 359.267 20.3736 359.694 19.0492C360.484 16.0788 361.886 15.3664 363.547 12.96C363.83 12.5503 364.002 12.2778 364.166 12.0155C364.92 10.9037 365.884 9.60248 367.107 8.98144C368.964 8.03794 370.024 7.80799 371.051 7.15609C372.03 6.53459 373.19 5.71967 374.542 5.16631C375.82 4.64367 378.161 4.24486 380.696 4.22183C384.25 4.18953 386.775 4.34008 389.095 4.35298C394.901 4.38528 399.043 4.52701 400.094 4.54873C401.658 4.58103 403.359 4.72971 404.724 4.94121C406.618 5.23483 408.449 5.38228 410.104 5.59304C411.379 5.75551 413.922 6.06295 416.185 6.838C420.842 8.43335 422.829 8.36077 423.608 9.51094C424.295 10.5239 424.855 11.7837 425.893 12.6106C427.372 13.789 429.293 14.7463 430.526 15.3168C431.87 15.9383 433.424 16.4674 435.357 17.242C437.155 17.9624 438.787 18.8351 440.451 19.7906C443.286 21.4193 444.55 22.1254 445.664 22.7885C447.205 23.7056 448.737 24.7757 449.742 25.529C450.787 26.313 451.711 27.2156 452.645 28.5973C453.394 29.7072 454.105 30.9035 453.815 32.6435C453.586 34.0176 453.562 35.6608 452.998 36.8843C452.212 38.5903 451.503 40.8942 450.551 42.6266C449.797 44.0008 449.13 45.5063 447.678 47.489C446.602 48.9571 445.747 50.3162 444.315 51.6985C442.425 53.5219 441.39 54.4441 440.305 55.1193C439.097 55.8709 437.8 57.1988 436.096 57.5318C434.92 57.7618 433.773 58.2515 431.526 58.7396C430.026 59.0655 428.61 59.4536 427.385 59.5539C426.178 59.6528 425.137 59.7897 424.091 59.9454C422.979 60.1108 421.626 59.9543 420.273 60.7959C419.064 61.5476 416.842 63.4436 414.955 63.0764C413.779 62.8474 412.481 62.6758 411.04 62.5547C409.864 62.4559 408.305 62.3862 406.831 62.4901C405.428 62.589 403.982 63.0881 402.721 63.7322C401.38 64.4173 399.403 64.8042 397.86 64.4789C396.62 64.2176 395.567 63.437 392.211 63.7302C390.352 63.8927 388.826 64.1272 387.682 64.4486C386.637 64.7422 385.114 64.9451 383.766 65.6896C382.526 66.3748 379.505 66.7594 376.749 66.4364C375.087 66.2416 373.663 66.0401 372.413 65.8825C371.102 65.717 369.115 65.3215 367.747 64.248C366.541 63.3015 365.7 62.4388 364.876 61.3744C363.538 59.645 362.672 58.4482 361.974 57.3292C361.06 55.8631 360.375 54.9614 360.051 53.8058C358.951 49.8777 359.694 48.9454 359.694 42.2488C359.694 39.0405 359.089 35.4795 359.237 33.9319C358.869 30.4276 358.856 28.3411 359.237 24.3645Z" stroke="black" stroke-width="2.1261" stroke-linecap="round"/>
<path d="M366.25 38.7077C366.153 34.1096 366.603 29.7602 366.807 27.2408C367.295 22.759 367.949 20.5039 370.854 17.659C371.337 17.1858 371.85 16.3459 373.182 16.2594C375.17 16.1302 376.803 16.1698 377.61 16.3269C378.951 16.5882 380.891 16.7373 382.503 17.6658C384.045 18.5535 386.277 20.018 386.218 21.2901C386.184 22.0065 386.079 22.7981 385.923 23.5745C385.595 25.209 385.599 26.9692 384.452 29.1895C383.375 31.2732 381.561 32.905 382.796 36.6651C383.383 38.4533 383.902 39.6993 384.794 39.8822C385.423 40.0114 386.459 40.0371 387.239 39.9449C389.988 39.6199 394.741 39.4386 397.087 38.6725C398.393 38.2458 400.028 37.5999 401.325 35.6345C401.584 35.243 401.638 34.9653 401.484 34.6225C400.797 33.0898 399.462 31.6884 397.17 29.398C394.858 27.0881 393.59 26.3212 392.903 24.1167C392.446 22.6486 391.857 21.4652 392.025 20.3994C392.123 19.7809 392.276 18.4575 393.468 17.8537C395.457 16.8466 397.623 16.3468 399.567 16.9474C400.938 17.3712 403.646 17.2081 406.029 20.1508C407.589 22.077 407.83 23.5086 408.045 24.9114C408.239 26.1838 408.195 27.8713 409.614 28.3664C410.265 28.5934 411.105 28.9957 411.505 28.5582C412.62 27.3387 413.926 24.4345 414.963 23.1732C415.877 22.0613 416.787 20.5297 418.13 20.2389C419.929 19.8494 421.55 19.2121 423.58 19.7202C425.144 20.1117 427.751 20.4433 428.176 22.4362C428.726 25.0132 429.16 26.6829 428.204 28.1413C427.215 29.6485 425.539 31.2328 424.548 32.5113C423.633 33.6927 422.475 35.7805 423.217 37.5372C423.382 37.9287 423.641 38.187 424.302 38.3162C424.964 38.4454 426.046 38.6013 426.914 38.2458C429.779 37.0713 431.814 35.3185 433.962 33.2767C438.009 29.4293 440.889 26.3365 443.748 27.2917C445.506 27.879 446.873 28.4156 447.361 29.0867C448.238 30.2945 448.625 32.1623 448.138 34.4727C447.78 36.1669 447.576 38.1153 446.046 40.3119C444.84 42.0433 444.147 43.5679 442.942 44.587C440.401 46.7373 438.699 47.6305 436.748 48.3982C435.507 48.8866 434.286 49.5262 432.959 50.3596C430.418 51.956 427.58 53.6264 423.561 53.6815C421.202 53.7138 416.874 53.7138 414.577 53.7471C412.28 53.7803 412.022 53.8843 411.293 53.8772C407.773 53.843 406.088 53.6533 404.384 53.517C401.948 53.3223 398.603 53.2146 395.767 54.6318L395.666 54.6825C393.765 55.6327 392.414 56.3077 391.009 56.4229C388.238 56.65 384.215 56.5986 382.584 56.3544C379.327 55.867 376.855 56.1909 375.348 54.7855C373.913 53.4476 371.33 52.3235 369.832 48.9013C367.845 44.3648 366.314 41.7162 366.25 38.7077Z" stroke="black" stroke-width="2.1261" stroke-linecap="round"/>
<circle cx="376.99" cy="26.1717" r="1.80719" fill="black"/>
<circle cx="387.62" cy="49.5588" r="1.80719" fill="black"/>
<circle cx="400.377" cy="24.0455" r="1.80719" fill="black"/>
<circle cx="419.512" cy="28.2978" r="1.80719" fill="black"/>
<circle cx="440.773" cy="36.8022" r="1.80719" fill="black"/>
<circle cx="421.638" cy="47.4327" r="1.80719" fill="black"/>
</svg>
