<svg width="458" height="76" viewBox="0 0 458 76" fill="none" xmlns="http://www.w3.org/2000/svg">
<path d="M57.2579 18.373C57.3433 18.373 57.5583 18.3302 57.7105 18.2869C57.7286 18.2817 57.478 18.329 57.4534 18.3296C56.9527 18.3428 58.636 18.158 59.3277 17.8348C60.0992 17.4743 60.7939 16.6503 62.2822 15.1834C63.0815 14.3956 63.9026 13.6712 64.5094 13.0644C65.0281 12.5456 65.6304 12.0288 66.3221 11.5314C66.9456 11.0831 67.5733 10.6895 68.1575 10.2361C68.8071 9.73203 69.8167 9.30873 71.6715 8.5102C72.5861 8.11648 74.7698 8.1404 76.1661 8.50567C77.0532 8.73773 77.85 9.43308 78.5831 9.95118C79.8563 10.851 80.0105 11.85 80.2695 12.9484C80.7813 15.1184 80.4431 16.0363 80.5506 16.9229C80.6307 17.5836 80.6154 18.1981 80.6801 19.5478C80.8329 22.7319 80.6594 25.0203 80.5946 25.4931C80.4067 26.8651 80.4431 30.8153 80.3142 33.3942C80.2638 34.4026 79.969 35.2503 79.9036 38.5875C79.875 40.0478 79.71 41.079 79.6446 41.8361C79.5709 42.6889 79.4069 43.7964 79.1705 44.9868C79.0199 45.7449 78.8473 46.6046 78.6304 47.5993C78.4604 48.3785 78.3707 49.6666 78.1343 50.73C77.9737 51.4522 77.5961 52.2183 77.2062 52.954C76.7994 53.7217 76.3863 54.5938 75.9116 55.2854C75.4365 55.9777 75.0056 56.5807 74.4868 57.2283C73.9619 57.8837 73.5808 58.6946 72.3956 59.9678C71.6434 60.776 70.8193 61.4146 70.1049 62.0215C69.5099 62.527 68.8323 63.057 68.1193 63.6185C67.0986 64.4223 65.5994 65.43 64.5573 66.1443C63.8886 66.6027 62.7938 68.0153 61.8373 68.9719C60.8643 69.9448 60.1541 70.44 59.3549 71.1738C58.6787 71.7946 57.5661 72.2949 56.7423 72.7728C56.0891 73.1518 55.1906 73.3337 54.3467 73.6795C53.2608 74.1245 51.911 74.1963 51.0218 74.3712C50.1683 74.539 49.4034 74.673 48.4967 74.6956C47.7361 74.7146 47.0719 74.072 46.3588 73.5105C45.4348 72.7828 44.7404 72.085 44.0701 71.4814C43.3767 70.8571 42.668 70.2717 42.0197 69.6039C41.0501 68.6052 40.466 68.0697 39.5807 67.2511C38.8707 66.5946 38.2641 65.9973 37.5938 65.3937C36.787 64.6672 35.9326 63.7098 35.0473 63.0622C34.2699 62.4935 33.4302 61.6815 32.6504 61.2475C31.8076 60.7786 30.5806 60.2126 29.5871 59.973C27.8622 59.5569 24.9021 59.8215 22.7429 59.4776C21.8431 59.3343 21.208 58.4433 20.712 57.8378C20.0736 57.0586 19.6978 56.2413 19.2004 55.5497C18.7308 54.8966 18.4439 54.1689 18.0133 53.3911C17.6282 52.6956 16.8482 52.1405 16.4369 51.4262C16.0381 50.7335 14.9105 49.5966 13.9986 48.9425C13.339 48.4694 12.4883 48.1667 11.7967 47.8843C11.0896 47.5956 10.4159 47.1305 9.76697 46.6978C9.05869 46.2257 8.98852 45.1021 8.8156 44.4104C8.64268 43.7187 8.5559 41.2344 8.68478 39.6179C8.74474 38.8658 8.94448 36.7398 8.68672 35.021C8.56319 34.1973 7.99634 33.5742 7.75801 32.775C7.53341 32.0219 6.83061 31.5018 6.31315 30.8315C5.71896 30.0618 4.5898 29.9008 3.6585 29.7506C2.78854 29.6102 2.21169 28.2662 1.80045 27.4424C1.42449 26.6893 1.21693 25.9322 1.15152 25.0255C1.02453 23.2652 1.21434 20.3211 1.8393 19.1761C2.50401 17.9582 3.45774 16.6114 4.02053 15.6555C4.4559 14.916 5.27111 14.5753 6.09166 13.9503C6.98059 13.2733 7.60258 12.6764 8.29425 12.179C9.00786 11.6659 9.93406 11.4226 10.6471 11.2711C11.432 11.1042 12.5634 11.1195 13.5822 11.012C14.852 10.878 15.6332 10.775 16.4324 10.7096C17.6172 10.6126 19.26 10.6869 19.9516 10.8598C20.6433 11.0327 21.4179 11.205 22.1536 11.5068C22.8522 11.7934 23.5343 12.0676 24.5485 12.4135C25.321 12.6769 25.9953 12.9743 26.7084 13.2127C27.5124 13.4814 28.1973 13.666 28.9317 13.7314C29.8485 13.8131 31.1272 13.9691 32.6854 13.3254C34.4961 12.5773 34.8886 11.2102 35.5803 10.3035C36.8614 8.62416 37.4377 8.14299 37.9992 7.49536C38.6452 6.75028 39.3806 6.45915 40.0924 5.91902C41.0557 5.18797 42.0126 4.99032 42.8124 4.5156C43.8444 3.9031 44.9477 3.86603 45.706 4.14516C46.376 4.39173 46.9786 4.81416 47.6055 5.67551C48.3923 6.75647 48.9656 7.57567 49.4843 8.24597C49.9622 8.86342 50.5199 9.51856 50.9091 10.4026C51.6728 12.1372 51.9887 12.9717 52.2484 13.7502C52.5666 14.704 53.1104 15.3473 53.758 16.1037C54.268 16.6993 54.8797 17.2902 55.5714 17.6379C55.916 17.8523 56.2631 18.0272 56.6076 18.1133C56.7812 18.1567 56.9522 18.1994 57.3874 18.2435" stroke="black" stroke-width="2.1261"/>
<path d="M53.372 24.0722C53.372 23.9867 52.9873 23.8572 52.5968 23.7918C52.5762 23.7883 52.9756 23.9401 53.067 23.9634C53.5985 24.0991 51.8643 23.4271 50.764 22.3495C50.0718 21.6716 49.6183 21.0102 48.9921 20.426C48.2543 19.7379 47.4604 18.9792 46.5323 18.1392C45.712 17.3967 44.9994 17.1658 44.2002 16.8414C43.2903 16.4719 42.1498 16.0856 40.0606 16.0843C38.6987 16.0834 36.9739 17.3342 35.632 17.8957C34.0016 18.5779 33.2125 18.6321 32.3706 18.761C29.8846 19.1415 25.7025 18.7202 24.5135 18.6107C23.1138 18.4819 21.3841 18.2461 19.8305 17.6412C18.8331 17.2529 17.2885 17.0778 15.5781 16.7552C13.8132 16.4224 13.0064 16.9897 12.2506 17.2494C11.1177 17.6387 10.3303 18.5854 9.76626 19.2771C9.31546 19.8299 9.50656 20.7434 9.548 21.7582C9.59695 22.9566 10.7112 23.422 11.4242 23.9407C12.2144 24.5156 12.9131 25.1058 13.755 25.6887C14.7859 26.4024 14.9881 27.2637 15.1183 28.0843C15.2498 28.9135 14.6021 29.5952 14.3852 30.2869C13.9971 31.5241 14.426 33.481 14.9007 34.0651C15.4898 34.7901 16.4518 35.5534 17.339 35.9873C18.0515 36.3357 18.8273 36.6777 19.5844 36.916C20.4074 37.1751 21.0733 37.6699 21.6361 38.21C22.2542 38.8033 22.3711 39.7837 22.5227 41.3316C22.9906 46.1107 22.7597 46.8222 22.9326 47.5139C23.1083 48.2168 23.5783 48.9801 24.441 49.9095C25.1033 50.6231 25.9953 51.0111 27.4822 51.7021C28.5036 52.1768 29.363 52.0059 31.1511 52.0072C32.2683 52.008 33.1607 51.1458 34.7143 50.1757C35.7763 49.5125 36.5724 48.8143 37.3936 48.124C38.689 47.0349 39.9401 46.0528 40.9122 45.2957C41.9271 44.5053 43.0047 43.6773 45.0091 43.0711C45.536 42.9118 46.0227 42.983 46.3504 43.0685C46.893 43.2101 47.1534 43.7149 47.3691 44.1242C47.7309 44.8109 47.3723 45.8274 47.1126 46.6072C46.8549 47.3809 46.1651 47.9025 44.7209 49.2599C43.9527 49.982 43.1005 50.5785 41.8487 51.8077C41.0689 52.5734 40.466 53.4281 39.8391 54.1832C38.7457 55.5002 38.9091 56.4927 38.9291 58.0023C38.9427 59.0244 39.6396 59.6453 40.3513 60.2509C41.3065 61.0635 42.655 61.7592 43.9774 62.2812C44.8051 62.6079 45.5538 63.1866 46.6968 64.0492C47.5912 64.7242 48.1443 65.645 48.7285 66.2959C49.2943 66.9263 50.1727 67.1605 50.9298 67.2259C51.9876 67.3173 53.4523 67.163 54.3402 66.7958C55.3854 66.3636 55.9599 65.7823 56.8012 65.2635C57.7235 64.6948 58.8069 63.1529 59.4578 62.2637C59.9951 61.5297 60.0633 60.7748 60.086 58.6855C60.0967 57.6961 59.7628 57.0185 59.3108 56.0905C58.839 55.122 58.0375 54.5575 57.5835 53.7163C56.8337 52.3268 56.7837 51.5784 56.8038 50.6504C56.8237 49.7303 57.4288 49.1174 58.2901 48.576C58.7576 48.2822 59.2849 48.2936 59.7369 48.3364C60.7793 48.4349 61.571 49.4127 62.2206 50.1044C63.0984 51.0391 64.2911 51.7468 65.155 51.8983C66.4756 52.13 67.1847 51.7909 68.0266 51.6406C68.9961 51.4676 69.7312 50.9722 70.6819 50.4975C71.5099 50.0841 71.8502 49.2469 72.1093 48.3416C72.5984 46.6322 72.4979 45.7083 73.4447 43.8535C73.9391 42.885 74.3967 42.123 74.7212 41.0874C75.0116 40.1607 75.0884 39.2734 75.2399 38.4315C75.4126 37.472 75.3915 35.999 75.091 34.9764C74.9751 34.582 74.4434 34.5211 74.0774 34.4563C73.2829 34.3157 72.5885 35.0793 71.8969 35.727C71.2255 36.3556 70.6016 36.8487 69.6755 37.6906C68.2519 38.9848 66.506 38.8382 65.5501 38.6879C64.8125 38.572 64.1693 38.0636 63.328 37.5883C61.8457 36.7507 61.0607 36.4212 60.2615 36.3558C59.2462 36.2727 57.1827 36.5896 55.493 36.6803C54.2366 36.7477 53.7632 35.6026 53.3733 34.955C53.1746 34.625 53.0274 34.2206 52.9193 33.7685C52.6983 32.8449 53.6284 32.1495 54.3836 31.5005C55.0166 30.9566 55.7864 30.5511 56.5208 30.1612C57.5215 29.63 59.1489 29.2999 60.2544 29.0162C61.7418 28.6346 63.3352 28.8647 64.4219 29.1224C65.4325 29.3621 66.3635 29.5123 67.1847 29.6198C68.4283 29.7826 69.6431 29.7713 71.2408 29.2986C72.2997 28.9852 73.0134 28.2196 73.7478 27.594C74.821 26.6798 74.7439 25.6731 74.8727 24.7664C75.0016 23.8596 74.9174 22.7381 74.0567 20.992C73.4989 19.8604 72.9331 19.2823 71.3826 18.4624C70.314 17.8973 69.0939 18.329 68.2701 18.4805C66.8594 18.7401 64.8169 19.7538 63.5664 20.3567C62.482 20.8795 60.9778 21.4791 59.8949 21.9551C59.0938 22.3072 58.1256 22.6034 57.3899 22.8838C56.6555 23.1215 55.8796 23.3805 55.0383 23.6396C54.7152 23.6836 54.245 23.6836 53.5015 23.8131" stroke="black" stroke-width="2.1261" stroke-linecap="round"/>
<path d="M43.3985 25.3674C43.3985 25.2819 43.2703 25.1097 43.1401 25.0009C43.1251 24.9883 43.2664 25.1913 43.2683 25.1938C43.6347 25.6824 42.0204 24.6343 40.5761 24.5689C39.0442 24.4995 36.8833 24.3752 33.2449 24.3526C31.5087 24.3418 29.8889 25.2353 28.9816 25.732C27.7341 26.415 27.1688 27.6497 26.8411 28.4948C26.5511 29.243 26.6041 30.1547 26.6669 31.1495C26.7314 32.1711 27.9823 32.7452 28.7802 33.4609C29.5258 34.1297 31.8966 33.7866 33.7009 33.4861C34.982 33.2728 35.5803 32.709 36.4222 32.492C37.7427 32.1517 39.422 32.4473 40.308 32.7064C41.2045 32.9685 41.9271 32.9654 42.7897 33.2245C43.6121 33.4714 44.3894 33.183 44.8201 32.9894C45.7858 32.5552 46.0745 31.3723 46.2261 30.5524C46.4698 29.2339 46.0331 28.5227 45.8174 27.8096C45.3427 27.0526 44.9541 26.664 44.6316 26.3415C44.4373 26.1472 44.1809 25.8907 43.7871 25.4969" stroke="black" stroke-width="2.1261" stroke-linecap="round"/>
<path d="M15.4208 22.6474C15.5063 22.6474 15.6785 22.7756 15.7873 22.9058C15.7999 22.9208 15.5969 22.7795 15.5944 22.7776C15.426 22.6513 16.1099 23.036 16.4544 23.0146C16.8042 22.9929 17.1461 22.7782 17.4051 22.4343C17.5453 22.2483 17.4932 21.9195 17.4077 21.6798C17.3222 21.4402 17.1513 21.2692 16.9777 21.1598C16.8041 21.0503 16.6332 21.0076 16.4596 21.0283C16.286 21.049 16.1151 21.1345 16.0056 21.2641C15.8962 21.3936 15.8534 21.5646 15.6798 21.9998" stroke="black" stroke-width="2.1261" stroke-linecap="round"/>
<path d="M17.7523 31.8438C17.7523 31.801 17.7523 31.7583 17.6881 31.8004C17.624 31.8425 17.4958 31.9707 17.4939 32.1222C17.4919 32.2738 17.6201 32.4448 17.6862 32.4046C17.7523 32.3645 17.7523 32.108 17.6881 32.04C17.624 31.972 17.4958 32.1002 17.4939 32.2304C17.4896 32.518 17.9232 32.7064 18.2678 32.8359C18.4354 32.8989 18.6123 32.88 18.7645 32.8159C18.9167 32.7517 19.0449 32.6235 19.1324 32.472C19.2198 32.3204 19.2625 32.1494 19.1991 31.9759C19.1356 31.8023 18.9646 31.6313 18.7911 31.5433C18.6175 31.4552 18.4465 31.4552 18.3157 31.5407C18.0994 31.7971 17.9258 32.1443 17.8604 32.4674C17.8805 32.6196 18.0087 32.7479 18.1408 32.88" stroke="black" stroke-width="2.1261" stroke-linecap="round"/>
<path d="M30.5754 45.0554C30.5754 45.1409 30.5754 45.3559 30.5754 45.5081C30.5754 45.5269 30.5754 45.2756 30.5754 45.2724C30.5754 45.2692 30.5754 45.4829 30.6608 45.6357C30.7463 45.7886 30.9173 45.874 31.0695 45.854C31.2217 45.8339 31.3499 45.7057 31.416 45.5114C31.482 45.3171 31.482 45.0606 31.3111 44.9285C31.1401 44.7964 30.7981 44.7964 30.622 44.9674C30.4458 45.1383 30.4458 45.4803 30.5313 45.6992C30.6168 45.9181 30.7878 46.0036 30.9827 46.0476C31.1777 46.0916 31.3914 46.0916 31.5228 46.0062C31.6543 45.9207 31.6971 45.7497 31.6977 45.5761C31.6983 45.4026 31.6556 45.2316 31.5481 45.1221C31.4406 45.0127 31.2696 44.97 30.8344 45.0554" stroke="black" stroke-width="2.1261" stroke-linecap="round"/>
<path d="M51.8177 58.9148C51.8177 58.8293 51.8177 58.6143 51.8177 58.4621C51.8177 58.4433 51.8177 58.6946 51.8177 58.6765C51.8177 58.6583 51.8177 58.4019 51.7322 58.227C51.6467 58.0521 51.4757 57.9666 51.3021 57.9226C51.1286 57.8786 50.9576 57.8786 50.8482 57.9641C50.6131 58.1476 50.6519 58.6104 50.7374 58.9556C50.9939 59.1298 51.4265 59.1738 51.8364 59.067C51.9899 58.9601 52.0327 58.7464 51.9472 58.2672" stroke="black" stroke-width="2.1261" stroke-linecap="round"/>
<path d="M65.159 45.5736C65.159 45.4881 65.159 45.615 65.2658 45.9168C65.3222 46.076 65.5864 46.1331 65.5896 46.0703C65.5929 46.0075 65.3791 45.7938 65.2904 45.7692C65.2017 45.7445 65.2444 45.9155 65.3519 46.025C65.5743 46.2514 65.9776 46.2212 66.3221 46.1571C66.504 46.1232 66.6666 45.9647 66.7547 45.7491C66.8428 45.5334 66.8428 45.2342 66.7573 45.0373C66.6718 44.8405 66.5008 44.755 66.3273 44.7109C66.1537 44.6669 65.9827 44.6669 65.8305 44.731C65.6784 44.7951 65.5501 44.9233 65.4841 45.1176C65.418 45.3119 65.418 45.5684 65.5249 45.7433C65.6317 45.9181 65.8454 46.0036 66.0656 46.0917" stroke="black" stroke-width="2.1261" stroke-linecap="round"/>
<path d="M68.6562 23.4245C68.6134 23.3818 68.5707 23.3391 68.5273 23.4025C68.4839 23.466 68.4411 23.637 68.4405 23.6396C68.4399 23.6422 68.4826 23.4712 68.4832 23.4686C68.5253 23.3002 68.3971 23.9841 68.5467 24.2432C68.6335 24.3935 68.9955 24.3312 69.2138 24.2671C69.594 24.1554 69.7779 23.7717 69.886 23.4271C69.9384 23.2601 69.8659 23.0826 69.7371 22.9945C69.6082 22.9064 69.3945 22.9064 69.2202 22.9706C69.046 23.0347 68.9178 23.1629 68.8304 23.3144C68.7429 23.466 68.7002 23.637 68.7209 23.8105C68.7416 23.9841 68.8271 24.1551 69.1743 24.2017" stroke="black" stroke-width="2.1261" stroke-linecap="round"/>
<path d="M40.1603 20.575C40.1603 20.6604 40.203 20.9182 40.2464 21.1138C40.2504 21.1315 40.2043 20.8392 40.1823 20.7926C40.1603 20.7459 40.1603 20.9169 40.2244 21.0905C40.2885 21.264 40.4168 21.435 40.6324 21.5231C40.8481 21.6112 41.1473 21.6112 41.3869 21.5257C41.6265 21.4402 41.7975 21.2692 41.907 21.0956C42.0164 20.9221 42.0592 20.7511 42.0384 20.5775C42.0177 20.404 41.9322 20.233 41.8027 20.1236C41.6732 20.0141 41.5022 19.9714 41.3286 19.9707C41.1551 19.9701 40.9841 20.0128 40.896 20.1203C40.8079 20.2278 40.8079 20.3988 40.9375 20.834" stroke="black" stroke-width="2.1261" stroke-linecap="round"/>
<path d="M79.913 42.9788C80.0081 42.2737 80.0198 41.3203 80.1198 39.9676L81.1229 16.4187C81.1869 15.4328 81.2801 14.7344 81.5691 14.2234C81.8576 13.7132 82.3071 13.1712 82.8922 12.8864C83.6116 12.5362 84.5036 12.3233 85.6641 12.2028C86.1241 12.1551 88.2646 12.2291 91.1644 12.1073C92.3012 12.0595 93.2168 12.1668 94.4068 12.0118C95.2647 11.9 96.0478 11.8375 96.968 11.6296C97.7504 11.4529 98.6828 11.3047 99.4356 10.7049C99.9764 10.274 100.447 9.86011 100.995 9.36742C101.474 8.93657 101.896 8.34723 102.572 8.0462C103.289 7.72712 103.85 7.4307 104.626 7.26665L104.652 7.26124C105.509 7.08008 107.997 6.55387 109.292 7.09326C110.135 7.44434 110.517 7.94706 111.092 8.51335C112.142 9.54606 112.782 9.75839 113.272 10.1508C113.829 10.5969 114.473 11.2259 115.119 11.8078C115.932 12.5401 116.764 13.4438 117.491 13.6688C118.16 13.8756 118.673 14.1604 120.902 14.018C122.144 13.9387 123.024 13.8303 123.605 13.7634C124.307 13.6826 124.946 13.5028 125.516 13.269C126.217 12.9814 126.803 12.6233 127.299 12.2974C127.906 11.8981 128.674 11.4673 129.322 11.151C130.006 10.8167 130.522 10.5768 131.36 10.1317C132.11 9.73331 132.923 9.32696 134.117 8.76126C135.356 8.17421 136.033 7.76013 137.131 7.76055C139.592 7.76151 140.415 7.62657 141.104 8.11212C142.018 8.75696 143.291 9.77851 143.634 10.3103C143.985 10.853 144.377 11.3113 144.669 11.8389C145.005 12.4464 145.358 13.1539 145.56 13.654C145.832 14.3265 146.074 15.1508 146.133 15.8995C146.212 16.9117 146.21 18.4516 146.42 19.0038C147.604 31.2438 147.617 38.2309 145.511 51.1034C145.389 51.85 145.015 52.5367 144.587 53.4124C144.3 54.0014 143.961 54.5382 143.456 55.2428C143.09 55.7534 142.791 56.3988 142.469 56.9629C142.07 57.6641 141.418 58.192 140.925 59.0006C140.574 59.5747 140.434 60.3737 139.714 60.9748C139.141 61.4529 137.816 62.6426 137.135 63.6339L137.12 63.6561C136.742 64.2073 136.323 64.8167 135.542 65.3688C135.001 65.7519 134.549 66.2654 133.823 66.8018C133.216 67.2499 132.456 67.766 131.832 67.9315C131.051 68.1383 130.355 68.2197 129.779 68.2974C129.074 68.3924 128.188 68.4728 127.677 68.5042C126.387 68.5835 124.345 68.8054 123.744 68.6466C122.897 68.423 121.564 68.2606 120.718 68.2171C119.778 68.1689 118.57 68.0136 117.467 68.0261C115.99 68.0428 115.465 68.0083 114.076 68.2339C112.9 68.4249 111.84 68.6228 110.735 68.7435C109.577 68.8701 107.915 68.8718 107.328 68.6623C106.658 68.423 105.896 68.4064 105.21 68.0566C104.365 67.6263 103.639 67.5033 103.125 67.3253C102.615 67.1486 101.786 66.5757 101.007 66.0022C100.225 65.4271 99.2713 64.6647 98.6351 64.1876C98.1249 63.8049 97.4286 63.3471 96.7402 63.1376C96.2143 62.9776 95.7047 62.8033 95.0363 62.7397C94.2023 62.6605 92.9308 62.8584 91.1333 62.7397C89.932 62.6605 88.0014 62.5025 86.9949 62.1661C86.2788 61.9268 85.7102 61.5042 84.8936 61.2743C84.2727 61.0995 83.6674 61.1032 82.9194 60.8449C82.362 60.6524 81.6562 60.4585 81.1368 59.7128C80.7704 59.1869 80.1134 58.5452 80.0396 57.8657C79.9756 57.2762 79.7691 56.7717 79.6092 56.0806C79.3699 55.0465 78.9956 54.0895 79.069 53.1525C79.1483 52.1404 79.3274 50.5686 79.4353 49.9527C79.5304 49.41 79.6874 48.7794 79.7057 47.4889C79.7529 44.163 79.836 43.5487 79.9084 43.0127L79.913 42.9788Z" stroke="black" stroke-width="2.1261" stroke-linecap="round"/>
<path d="M87.4698 18.7784C88.2431 18.4933 89.1105 17.9161 89.9433 17.9079C93.6663 17.9122 95.6734 17.7389 98.7965 16.4271C99.8665 15.9777 101.187 14.8927 101.937 14.7263C102.669 14.564 104.886 14.3375 106.661 14.7074L106.679 14.7112C107.743 14.9329 108.512 15.0933 109.864 15.8448C111.506 16.7572 112.717 17.4067 113.61 18.4192C114.501 19.4295 115.293 20.1894 116.406 20.6452C117.297 21.01 118.538 22.0138 121.62 21.6154L121.724 21.6019C123.536 21.3679 124.467 21.2476 125.832 20.6203C127.551 19.8307 128.344 19.4026 129.861 18.4726C131.291 17.5961 133.226 16.3176 134.299 16.0831C135.498 15.8211 136.669 15.7005 137.418 15.9633C138.294 16.2709 139.854 16.7436 140.68 17.5456C141.328 18.1748 141.772 18.7753 142.138 19.9182C142.503 21.0561 142.857 22.18 143.049 23.3448C143.354 25.1922 143.69 26.473 143.717 29.0377C143.757 32.7433 143.725 35.2389 143.635 35.6204C143.554 35.9639 143.442 36.2855 143.413 36.6131C143.351 37.3037 143.182 38.0291 143.027 38.8021C142.865 39.6136 142.862 42.5378 142.886 44.8098C142.906 46.7137 142.684 48.2391 142.337 48.8535C141.81 49.7847 141.385 50.4165 140.816 51.2443C140.149 52.2163 140.022 53.2264 138.303 54.567C137.839 54.9286 137.135 55.0525 136.276 54.9481C135.446 54.8472 134.528 54.9335 134.172 54.3384C133.99 54.035 133.866 53.5816 133.93 53.0606C134.031 52.2503 133.884 51.4941 134.621 50.2437C135.087 49.454 135.712 48.6082 135.449 47.6912C135.327 47.2669 135.255 46.7082 134.86 46.4967C134.107 46.0937 132.979 45.8839 132.306 46.4408C131.84 46.8256 131.429 47.2958 131.275 47.758C131.031 48.4887 131.007 49.6923 130.341 49.8024C129.977 49.8625 129.266 49.7799 128.231 49.4559C126.936 49.0504 125.86 48.6583 125.011 49.1756C124.546 49.4589 123.831 49.8369 123.798 50.4953C123.739 51.6497 123.911 53.5654 125.018 54.649C126.092 55.7007 126.811 56.1305 127.997 56.5097C128.889 56.7948 130.186 57.0312 130.832 57.9097C131.115 58.2939 131.389 58.7468 131.316 59.1863C131.194 59.9169 130.959 60.7481 130.361 61.171C129.732 61.6166 129.191 62.0671 128.537 62.3862C127.787 62.7521 126.662 63.1592 125.699 63.684C124.585 64.2913 123.847 64.7754 121.502 64.5527C120.004 64.4104 118.716 64.1283 117.696 63.9648C116.682 63.8025 115.442 63.7245 114.597 63.2147C113.886 62.7861 113.221 62.0677 112.185 61.2476C111.416 60.6391 110.524 59.7417 110.709 58.5516C110.851 57.6386 111.114 56.841 111.744 55.5317C112.271 54.4363 112.707 53.3708 113.02 52.4327C113.324 51.5184 113.983 48.947 113.321 47.5082C112.875 46.5362 112.451 45.3504 111.78 45.5466L111.757 45.5532C110.983 45.7797 109.758 46.1376 109.146 47.2122C108.415 48.4936 107.598 50.2268 107.121 51.1014C106.509 52.2236 105.775 53.9592 105.216 54.8709C104.605 55.866 103.91 57.0497 102.782 57.5036C101.522 58.0106 99.173 58.2273 97.6142 58.1498C96.379 58.0884 95.5114 58.1879 93.9639 57.5796C92.1651 56.8727 90.8631 56.5854 90.119 55.7973C89.3689 55.0028 88.8272 53.5109 88.3981 52.412C88.034 51.4795 87.8618 50.5925 87.6084 49.6571C87.3434 48.6784 86.8624 47.4962 86.7781 46.4937C86.6553 45.0335 86.5476 42.9156 86.3526 41.1655C86.2918 40.6203 86.3873 38.1438 86.231 34.815C86.1301 32.6667 86.1011 31.0527 85.9878 30.0018C85.8869 29.0656 85.8841 28.0108 85.7447 26.8608C85.6438 26.0286 85.571 25.2194 85.4 24.4706C85.2377 23.76 84.9098 22.398 85.3003 21.4105C85.6049 20.6404 86.392 19.1758 87.4698 18.7784Z" stroke="black" stroke-width="2.1261" stroke-linecap="round"/>
<path d="M104.452 28.9325C105.383 29.2358 106.079 29.6014 106.802 30.13C108.498 31.3699 109.088 32.1568 109.676 33.6758C109.797 34.1001 109.92 34.466 110.041 34.9341C110.039 36.2897 110.146 37.2335 109.51 37.7486C108.41 38.641 107.032 39.6156 105.396 39.3461C104.525 39.2027 103.466 39.2494 102.295 38.1881C101.446 37.4179 100.784 36.2417 100.211 35.3718C99.7442 34.663 99.1964 33.851 98.5284 33.9767C97.8792 34.0989 97.057 34.573 96.2185 34.8691C95.5279 35.1128 94.5259 35.4107 93.6854 35.1511C92.8921 34.9061 91.437 34.3812 91.4387 33.3658C91.4393 33.0022 91.0879 32.1461 91.7274 31.3755C93.1037 29.7172 93.6875 28.8216 95.3133 28.5452C96.5151 28.341 97.8816 27.9385 99.208 27.9988C101.497 28.1027 103.117 28.4978 104.452 28.9325Z" stroke="black" stroke-width="2.1261" stroke-linecap="round"/>
<path d="M116.75 33.2217C117.499 31.947 118.23 30.7785 121.01 30.2054C125.491 29.0806 127.213 30.1918 130.022 28.8292C130.624 28.5371 131.458 28.1086 132.58 28.1204C134.603 28.1416 135.637 27.8306 137.096 29.1161C138.255 30.1379 139.415 31.7396 139.645 32.5208C139.908 33.4132 140.15 34.5004 139.866 35.4393C139.497 36.6593 138.899 37.8286 138.386 38.3559C137.715 39.0446 136.805 39.8511 135.728 40.1789C134.27 40.6227 133.303 40.7306 132.284 40.8665C131.067 41.0288 128.41 41.3582 125.286 41.5151C123.689 41.5953 121.953 41.5859 120.711 40.8829C118.948 39.8859 117.394 38.639 117.07 37.2344C116.765 35.9128 116.193 34.1689 116.75 33.2217Z" stroke="black" stroke-width="2.1261" stroke-linecap="round"/>
<circle cx="101.041" cy="21.6393" r="2.1261" fill="black"/>
<circle cx="96.7889" cy="51.4047" r="2.1261" fill="black"/>
<circle cx="136.653" cy="21.1078" r="1.59458" fill="black"/>
<circle cx="119.645" cy="59.3776" r="1.59458" fill="black"/>
<path d="M147.717 26.0813C147.717 25.9128 147.717 25.3203 147.717 24.8491C147.717 24.8146 147.717 25.4735 147.717 25.4824C147.717 27.0084 147.717 21.4179 148.013 19.4463C148.254 17.8459 149.587 16.4685 150.565 15.1468C151.544 13.8242 153.244 13.6541 154.904 13.1433C156.737 12.5793 159.7 13.3119 161.759 13.0577C163.176 12.8827 164.312 11.7846 165.377 10.5077C166.562 9.08672 167.377 7.52985 168.57 6.37804C169.686 5.30042 170.697 4.12296 172.058 3.10013C173.644 1.90851 175.207 1.90618 177.461 1.98791C179.811 2.07312 181.081 5.21603 182.191 6.66663C183.197 7.98154 183.977 9.38908 185.042 11.1768C185.985 12.7597 187.466 13.5621 188.83 14.2887C190.102 14.9668 191.721 15.2681 193.256 15.5669C195.282 15.9614 197.171 14.0831 198.492 12.8062C199.776 11.5664 200.833 10.0837 201.94 8.88979C203.456 7.25516 205.088 6.33462 206.452 5.69488C208.392 4.7846 211.473 5.73191 212.878 6.75219C214.562 7.9742 215.222 9.38908 215.649 10.7529C216.44 13.2723 215.738 17.4747 215.439 19.5178C215.093 21.8839 215.14 25.121 214.928 28.7016C214.439 36.9602 214.629 40.6947 214.841 43.9892C215.129 48.4571 214.629 50.1645 214.375 51.6151C214.129 53.0222 213.439 54.3376 212.378 55.4472C211.314 56.5598 209.869 57.4891 208.293 58.7239C206.956 59.7719 205.951 60.9777 204.928 62.1295C203.819 63.3783 202.212 65.3142 200.758 66.6422C199.505 67.7861 197.865 67.8783 194.771 68.1771C190.108 68.6275 186.626 68.3048 184.681 68.4325C177.531 68.9019 176.157 68.0519 174.794 67.499C173.383 66.9272 171.816 66.3511 170.452 65.627C168.969 64.8397 167.73 63.7972 166.112 63.1153C164.42 62.4022 162.877 61.9226 156.85 61.8779C155.211 61.8658 154.11 62.0912 152.75 61.9647C151.663 61.8638 151.04 61.0722 150.572 60.5205C149.624 59.4007 149.592 57.8415 149.251 56.4777C148.91 55.1139 148.402 53.5867 148.016 52.1361C147.664 50.8123 147.549 49.4137 147.25 47.8392C147.206 46.5278 147.291 45.4092 147.376 44.7298L147.717 26.0813Z" stroke="black" stroke-width="2.1261" stroke-linecap="round"/>
<path d="M152.613 42.1236C152.694 40.0037 152.849 38.8309 152.959 37.8565C153.402 33.5224 153.38 31.092 152.772 26.7598C152.609 25.6022 152.157 24.0336 152.88 22.6474C153.439 21.5746 153.939 20.4102 154.927 19.8561C155.404 19.5885 155.874 19.2546 157.012 19.2129C161.464 19.0501 162.855 18.763 164.063 18.2175C165.075 17.7605 166.252 17.0174 166.983 16.0936C167.621 15.2875 168.229 14.4516 169.215 13.8915C170.066 13.4079 171.905 12.7561 173.199 13.4119C173.729 13.6803 174.366 14.0644 174.899 14.65C176.127 16.0001 177.779 17.5144 178.616 18.2215C179.738 19.1694 180.782 21.215 182.365 21.5536C184.738 22.0614 186.878 22.1156 188.292 21.7632C191.418 20.9846 192.27 20.6703 193.117 20.152C194.401 19.3661 196.159 18.2341 197.127 17.7064C198.111 17.1704 199.352 16.1956 201.442 16.3386C205.823 16.6385 208.962 17.5809 209.501 18.8945C209.899 19.8626 210.786 22.9007 209.709 25.1058C208.726 27.1169 208.175 27.9873 207.132 28.6467C205.635 29.593 203.506 31.5215 201.953 31.5194C200.753 31.5178 199.292 31.1401 197.489 31.1422C196.084 31.1438 195.179 31.0286 193.848 31.4944C191.459 32.3303 189.766 33.1907 189.274 34.3959C187.939 37.6712 188.603 40.9508 192.336 40.9508C194.357 40.9508 196.265 40.3482 197.543 39.6112C198.659 38.968 201.171 37.6534 203.094 36.522C206.283 34.6456 207.132 31.6033 209.983 30.6602C210.678 30.4304 211.184 31.1126 211.414 31.6033C211.652 32.1127 211.929 33.8129 211.73 35.9881C211.598 37.4341 211.604 38.3038 211.411 39.6112C211.225 40.8743 211.013 42.0543 210.8 43.0489C210.587 44.0436 210.025 45.4314 209.658 46.6229C209.258 47.9158 209.013 49.7033 207.902 50.221C206.865 50.7046 206.115 51.4432 205.166 51.7799C203.509 52.3683 201.3 52.4138 200.627 51.667C199.8 50.7498 198.857 49.3704 197.543 49.2239C196.828 49.1441 196.226 49.1533 195.819 49.3336C195.395 49.5214 194.841 49.803 194.786 50.4403C194.707 51.3527 194.717 52.1214 194.921 52.5875C195.561 54.0448 197.141 56.2075 196.751 58.8496C196.565 60.1126 196.611 61.4288 195.82 62.0165C194.694 62.8532 192.915 63.702 191.941 63.8148C190.554 63.9752 189.069 64.2848 186.015 64.109C183.69 63.9752 180.821 64.0185 179.456 63.7591C177.759 63.4367 176.639 63.3391 175.82 62.5469C174.626 61.3926 173.605 60.744 173.593 59.4243C173.568 56.824 173.927 55.3931 174.791 54.4882C175.538 53.7063 176.362 52.8234 177.155 52.2047C177.982 51.559 179.31 51.1807 181.142 49.839C182.389 48.9249 183.732 48.0663 183.819 46.963C183.871 46.2924 183.871 45.6743 183.657 45.2994C183.549 45.1108 183.399 44.8528 183.015 44.8714C181.264 44.956 180.356 45.2801 179.406 45.9224C178.45 46.5681 177.074 48.2074 175.875 49.1466C175.05 49.7922 174.052 50.5439 172.629 51.3253C170.429 52.5327 168.904 53.5196 167.748 54.0892C166.869 54.522 165.762 55.3239 164.106 55.8632C162.621 56.3469 161.135 56.5369 159.966 56.425C159.115 56.3436 158.181 56.1649 157.151 55.4288C156.247 54.7832 155.367 54.1926 154.521 53.6289C153.592 53.0099 152.759 52.0005 152.506 50.8868C152.267 49.8373 152.232 48.0135 152.295 46.3416C152.375 44.1951 152.571 43.2384 152.613 42.1236Z" stroke="black" stroke-width="2.1261" stroke-linecap="round"/>
<path d="M157.594 33.7566C157.63 32.3626 157.681 31.5703 157.927 30.9695C158.438 28.996 159.388 28.4255 161.589 27.8184C162.283 27.6273 163.054 27.8217 163.786 28.1683C164.78 28.6394 165.562 28.933 166.224 29.1785C166.836 29.405 167.541 29.7584 169.521 29.5608C170.392 29.474 171.169 29.5087 172.064 29.3516C172.761 29.2293 173.384 29.1161 174.139 29.0729C175.062 29.0201 175.678 28.892 176.561 28.7586C177.365 28.6373 178.157 28.528 179.036 28.7597C179.771 28.9532 180.738 29.4282 181.179 30.296C181.615 31.1536 181.901 32.1425 181.682 32.9477C181.297 34.3601 181.2 35.4843 179.708 36.8005C178.367 37.9828 176.723 39.1416 175.175 39.6206C173.485 40.1435 172.548 40.6177 171.343 40.7349C169.919 40.8735 166.861 40.8487 165.679 39.8606C165.052 39.3361 164.34 38.4132 163.5 37.9436C162.751 37.5247 162.179 37.3409 161.6 37.1953C160.69 36.9663 159.682 36.8 159.143 36.3576C158.567 35.8849 157.564 34.893 157.594 33.7566Z" stroke="black" stroke-width="2.1261" stroke-linecap="round"/>
<circle cx="168.545" cy="21.1078" r="1.59458" fill="black"/>
<circle cx="162.167" cy="50.8732" r="1.59458" fill="black"/>
<circle cx="187.68" cy="59.3777" r="1.59458" fill="black"/>
<circle cx="202.563" cy="46.621" r="1.59458" fill="black"/>
<circle cx="204.689" cy="21.1078" r="1.59458" fill="black"/>
<path d="M214.903 34.4514C214.997 32.5538 215.014 32.0446 215.091 31.549L215.091 24.1367C215.091 20.8847 215.286 17.453 215.851 16.324C216.545 14.9354 216.969 14.7699 217.945 13.7953C219.2 12.5421 220.035 11.7182 221.018 11.2268C222.151 10.6604 223.924 10.187 225.158 10.477C226.227 10.7282 227.374 11.2693 228.86 11.0085C230.114 10.7884 231.047 10.3142 231.963 9.75251C232.937 9.15507 233.871 8.21707 234.975 7.08429C236.136 5.89224 236.978 4.6904 238.141 4.32763C239.146 4.01433 240.131 3.57997 241.152 3.32469C242.157 3.07349 245.745 2.01393 247.707 3.20239C248.743 3.82992 249.884 4.19504 251.031 5.52532C252.006 6.6562 253.181 7.87792 254.199 8.59716C255.265 9.35077 256.478 11.7883 258.432 12.2975C260.108 12.734 262.578 12.9749 263.765 12.4499C265.113 11.8534 265.979 11.085 267.087 10.1589C268.064 9.34324 269.466 8.37584 270.631 7.4625C271.511 6.77287 272.32 5.64464 274.248 5.64574C277.532 5.64763 278.719 6.04954 280.041 6.90365C284.192 10.1423 285.176 12.9892 285.621 19.0725C285.712 20.3192 286.205 21.3816 286.31 22.6157C286.498 24.8031 286.223 28.1478 286.152 29.3605C286.057 30.9901 285.85 33.2468 285.776 35.1655C285.681 37.6399 285.439 38.758 285.4 40.3778C285.305 44.35 285.19 45.4978 284.96 46.544C284.74 47.5488 284.444 48.5402 284.239 49.6187C282.992 53.6439 281.919 55.6249 278.59 58.1163C277.208 59.1505 275.815 61.1101 274.796 62.1949C273.822 63.2307 272.988 64.2654 272.161 65.2366C271.251 66.3054 270.445 67.3917 269.527 68.0582C268.489 68.8118 267.192 69.8391 265.794 70.0951C264.602 70.3134 263.625 70.6201 262.439 70.6907C259.291 70.8779 254.168 70.9546 252.559 70.6577C251.366 70.4376 249.813 70.2007 248.671 69.716C247.411 69.1806 245.682 69.0526 244.437 68.0206C243.339 67.1108 242.464 66.2339 241.71 65.2291C240.956 64.2243 240.385 62.9325 239.263 62.4395C238.194 61.97 236.954 61.6526 235.844 61.5005C234.683 61.3415 233.311 61.0224 232.081 60.936C230.728 60.841 229.335 60.8511 226.211 60.4967C224.27 60.2765 223.036 59.8777 221.824 59.807C220.194 59.712 218.73 59.4412 217.844 58.424C216.995 57.4502 216.201 56.4697 215.744 55.4124C215.241 54.2514 214.848 53.2515 214.773 51.8993C214.617 49.0768 215.219 45.0262 215.027 43.4327C214.933 42.6509 214.67 39.1378 214.903 34.4514Z" stroke="black" stroke-width="2.1261" stroke-linecap="round"/>
<path d="M222.371 33.2407C222.258 32.5022 221.854 30.69 221.672 29.4992C221.678 26.7863 221.793 25.2049 222.353 22.1879C222.505 21.3692 222.641 20.4121 223.186 19.9405C223.469 19.6957 223.827 19.4082 224.263 19.2802C224.906 19.0915 225.632 20.0111 231.056 18.8455C232.728 18.4861 233.75 17.6901 234.561 16.9546C235.374 16.2166 236.256 15.5053 236.77 14.82C237.224 14.2146 237.629 13.5635 238.283 12.9676C239.153 12.1741 240.373 11.2213 241.779 11.4407C242.629 11.5733 243.751 11.4384 244.556 11.8006C245.654 12.2943 246.816 12.8609 247.332 13.4636C247.919 14.1489 248.307 15.3745 248.578 16.0908C248.9 16.9444 249.285 18.4965 249.958 19.1702C250.755 19.9666 251.423 20.8872 252.169 21.4749C252.793 21.9663 253.482 22.7312 254.779 22.9667C256.124 23.211 257.5 23.2202 258.387 22.9452C259.481 22.6057 260.112 22.2074 261.466 21.5843C262.202 21.2453 263.625 20.5351 265.001 19.7694C266.358 19.0144 266.786 18.3786 267.53 17.7861C268.362 17.1235 268.877 16.3422 269.551 15.8595C270.212 15.3868 270.84 15.0566 271.459 14.7077C272.065 14.3665 272.956 13.3554 274.125 13.7464C274.633 13.9165 275.176 14.0633 275.598 14.3705C276.22 14.8245 276.61 15.346 276.938 16.0159C277.429 17.0192 277.746 18.0254 278.071 18.6788C278.411 19.3613 278.643 20.1042 278.693 20.8735C278.789 22.3472 278.895 23.561 279.072 24.5957C279.204 25.3694 279.389 27.7098 279.26 30.5722C279.203 31.8288 279.007 32.4281 278.843 33.1925C278.56 34.5132 278.306 35.3382 278.145 36.3457C278.069 36.8167 278.26 39.594 277.993 43.4234C277.88 45.0547 277.812 45.5958 277.672 46.1526C277.388 47.2845 277.082 48.228 276.651 48.985C276.177 49.817 275.735 50.4852 275.291 50.9677C274.856 51.4404 274.197 52.1091 273.206 52.0996C271.151 52.0797 270.001 51.9076 268.749 51.2273C267.183 50.377 266.03 49.569 265.105 48.582C264.236 47.6541 263.619 46.5493 262.686 46.4876C262.12 46.4502 261.596 46.4707 261.271 46.6973C260.647 47.1326 259.63 47.9651 259.8 48.8144C259.933 49.477 259.978 50.2353 260.121 51.0821C260.273 51.9732 260.201 53.0937 261.334 54.6179C262.202 55.7867 263.149 56.5342 263.637 57.3352C264.052 58.0176 264.689 58.8332 264.277 60.1522C264.011 61.0013 263.705 61.696 262.971 62.1905C262.27 62.6632 261.529 63.0696 260.76 63.3615C259.815 63.7197 258.992 63.9093 258.191 64.0411C256.933 64.248 255.282 64.1724 254.449 64.0207C253.618 63.8694 253.007 63.8385 252.315 63.6806C251.653 63.5293 250.726 63.3739 249.819 63.0753C248.553 62.6587 246.959 62.447 246.856 61.0444C246.744 59.5151 246.748 58.38 246.839 58.0295C247.05 57.2128 247.495 56.0274 248.182 55.1195C248.712 54.4195 249.449 53.6362 249.958 52.9464C250.601 52.0775 251.469 51.3825 251.468 50.3952C251.467 49.4701 251.435 48.4402 250.672 47.9596C249.952 47.5067 248.568 47.2252 247.554 47.471C246.93 47.6223 246.244 47.8341 245.191 48.3603C244.169 48.8716 243.025 49.4473 242.207 49.8714C241.219 50.3838 239.919 50.9424 238.88 51.4784C237.709 52.082 237.024 52.4478 236.14 52.9713C235.027 53.6305 234.391 53.9575 233.553 54.2546C232.646 54.576 231.842 55.1432 230.491 55.1416C229.509 55.1405 228.151 55.2484 227.167 54.3447C226.26 53.5126 225.601 52.8926 225.242 51.8876C224.863 50.8282 224.477 49.7926 224.317 48.9028C224.147 47.9579 224.058 45.6098 223.977 44.0843C223.92 43.0085 223.808 42.4095 223.75 41.7054C223.693 41.0043 223.516 40.1043 223.391 39.3248C223.278 38.6237 223.274 37.4741 222.918 36.1484C222.598 34.9576 222.507 34.1325 222.371 33.2407Z" stroke="black" stroke-width="2.1261" stroke-linecap="round"/>
<path d="M230.23 36.8121C229.81 35.7057 229.101 34.0843 228.926 33.2395C227.658 29.5992 228.301 27.9264 230.97 28.3327C231.687 28.4419 232.284 29.1598 232.917 29.8075L232.924 29.8148C233.756 30.6662 234.628 31.5589 235.639 31.9415C236.737 32.357 237.804 32.5386 238.604 32.1841C239.416 31.8242 240.173 31.558 240.833 31.012C241.496 30.4639 242.244 29.7493 242.93 29.3308C243.611 28.9153 244.232 28.5231 244.839 28.6716C245.538 28.8428 246.465 28.9089 247.238 29.6556C247.767 30.1669 248.631 30.7283 248.729 31.5465C248.785 32.0181 248.726 32.4434 248.557 32.7549C248.177 33.4543 247.509 34.0129 246.817 34.2269C246.023 34.4723 245.413 34.6083 244.701 34.983C243.944 35.3815 242.967 35.7989 242.074 37.1018C241.414 38.0659 240.703 40.3462 238.782 40.8796C236.684 41.4622 235.325 41.6888 234.44 41.2911C233.211 40.739 232.284 39.9139 231.797 39.1927C231.363 38.5488 230.557 37.6733 230.23 36.8121Z" stroke="black" stroke-width="2.1261" stroke-linecap="round"/>
<path d="M253.374 34.6946C252.979 33.5564 253.058 32.3841 253.34 31.7109C254.107 29.8776 255.565 29.3597 258.461 30.4287C259.108 30.6676 259.671 31.155 260.883 31.1849C262.354 31.2211 263.581 30.7253 264.734 30.1244C265.605 29.6704 266.516 29.1205 267.284 28.9159C268.138 28.6886 271.429 27.6885 272.915 28.9386C273.386 29.3348 273.801 29.8191 273.8 30.4531C273.799 31.8673 273.621 32.5553 273.098 33.1897C272.475 33.9464 272.027 34.6863 271.531 35.2489C270.539 36.3723 269.127 37.8208 268.621 38.461C267.977 39.2744 267.298 40.4844 266.372 40.6319C265.671 40.7435 264.582 40.8205 263.632 40.5355C262.685 40.2515 261.888 39.9402 260.986 39.666C259.928 39.3447 258.974 38.8222 257.907 38.4383C257.169 38.1725 256.117 37.7181 255.565 37.1143C254.979 36.4721 253.828 36.0062 253.374 34.6946Z" stroke="black" stroke-width="2.1261" stroke-linecap="round"/>
<circle cx="240.832" cy="18.9817" r="1.59458" fill="black"/>
<circle cx="232.328" cy="48.7471" r="1.59458" fill="black"/>
<circle cx="255.715" cy="59.3777" r="1.59458" fill="black"/>
<circle cx="272.724" cy="46.621" r="1.59458" fill="black"/>
<circle cx="272.724" cy="21.1078" r="1.59458" fill="black"/>
<path d="M286.558 17.6089C286.75 15.5677 286.507 13.6598 287.331 12.6474C289.778 9.44765 292.252 9.48383 297.583 11.0729C300.789 12.0285 302.24 11.0782 303.389 10.5716C304.623 10.0275 306 9.03885 306.621 7.79575C307.238 6.56203 308.241 4.7246 309.858 3.71571C310.473 3.3322 311.584 2.98248 312.864 3.219C314.326 3.4893 315.668 3.81369 316.828 4.87896C318.254 6.18776 319.504 7.092 320.484 8.26705C321.645 9.65787 323.013 11.4554 324.413 12.1542C325.725 12.8092 328.859 13.3877 330.882 12.8819C332.116 12.5735 333.472 12.4822 334.579 11.6863C335.812 10.7992 336.734 9.54087 337.851 8.7603C339.125 7.86968 340.475 6.73897 341.933 5.98792C343.205 5.33294 344.355 4.40914 345.747 4.41112C347.364 4.41343 348.622 4.65893 349.827 5.26132C351.06 5.87817 352.214 6.85722 353.098 7.99674C353.907 9.0387 354.785 10.3462 355.099 11.9255C355.367 13.2758 356.198 14.6784 355.559 24.3793C355.367 27.2903 355.558 28.9958 355.096 37.2374C354.981 39.3017 355.168 40.8853 354.865 42.7336C354.595 44.3867 354.569 45.7956 354.211 47.2734C353.902 48.5453 353.573 49.7668 353.093 51.201C352.668 52.4728 352.107 53.8185 350.47 54.8582C348.893 55.8598 347.71 56.4947 346.583 57.5151C345.349 58.6321 344.199 59.6474 342.886 60.6722C341.653 61.6356 340.38 62.5014 339.19 63.4827C337.878 64.5651 336.474 65.7643 335.302 66.7171C334.26 67.5639 333.186 68.7139 331.025 69.3728C329.639 69.7956 328.393 70.452 325.633 70.1399C323.937 69.9481 322.413 69.748 321.13 69.4849C319.626 69.1765 317.89 68.6542 316.356 67.8665C314.848 67.0926 313.304 65.7752 311.928 65.1323C310.694 64.5558 309.475 64.0573 308.039 63.7091C306.767 63.4007 305.399 63.1955 304.073 62.8231C302.839 62.4765 301.566 62.818 295.168 62.0537C292.905 61.7834 291.452 61.4513 290.211 60.7045C289.056 60.0091 287.703 59.3291 287.287 58.0835C286.824 56.6961 286.344 55.472 286.326 51.7589C286.288 43.8669 286.127 38.4532 286.095 37.7514C286.057 36.9058 285.85 36.1417 285.864 35.284C285.905 32.8997 286.378 31.7377 286.482 30.4369C286.75 27.0823 286.172 21.7183 286.558 17.6089Z" stroke="black" stroke-width="2.1261" stroke-linecap="round"/>
<path d="M299.876 36.4436C298.759 35.2099 297.992 33.9808 297.375 32.7471C295.184 28.3644 297.706 25.8915 302.927 28.3644C304.66 29.1854 307.269 28.7906 308.511 29.0944C309.937 29.4433 311.345 29.7222 312.167 30.7151C313.092 31.8322 314.376 33.0907 314.707 34.6046C315.167 36.7024 315.311 39.7465 314.625 40.8424C314.241 41.457 313.759 42.3279 312.769 42.3407C310.001 42.3765 308.754 42.2891 307.153 41.7989C305.764 41.3738 304.422 40.7112 303.149 39.7173C301.915 38.7539 300.927 37.6045 299.876 36.4436Z" stroke="black" stroke-width="2.1261" stroke-linecap="round"/>
<path d="M320.556 38.7541C320.25 36.1064 319.924 31.9777 320.599 30.7061C321.877 28.2984 325.345 26.9545 328.11 29.3268C329.144 30.2142 330.491 31.0598 332.313 31.0584C335.198 31.0561 336.573 30.5863 337.813 29.552C338.968 28.5886 339.798 27.0529 341.164 26.8594C341.972 26.745 342.869 26.6447 343.319 27.095C343.818 27.5952 344.373 28.159 344.511 28.8682C344.97 31.2363 345.151 34.67 344.196 35.7599C343.658 36.3744 343.054 36.869 342.424 37.1438C341.191 37.6821 339.941 37.9172 338.728 38.2978C337.494 38.6848 336.428 40.5313 334.875 40.7236C333.952 40.838 332.677 41.0097 331.373 40.3355C330.101 39.6782 329.212 37.736 327.403 37.525C326.095 37.3725 325.17 37.8475 324.72 38.2978C324.221 38.798 323.555 39.6471 322.132 39.7983C321.784 39.8353 321.479 39.7591 321.209 39.5638C320.938 39.3686 320.596 39.0974 320.556 38.7541Z" stroke="black" stroke-width="2.1261" stroke-linecap="round"/>
<path d="M301.772 16.5402C303.006 16.2699 304.931 14.9763 306.353 13.7655C311.825 9.72692 314.704 11.0909 319.6 18.1239C320.462 19.3636 322.062 20.6079 326.345 20.0057C328.267 19.7354 329.752 18.9843 331.306 18.4647C332.578 18.0396 333.812 17.5903 335.119 17C336.736 16.2699 338.342 14.7038 342.362 15.4636C344.208 15.8125 345.598 16.5742 346.748 17.8571C348.44 19.7446 349.386 21.2724 349.862 22.6302C350.363 24.0557 350.637 25.5975 350.785 26.9806C350.977 28.7641 351.149 31.1056 350.707 33.1052C350.358 34.6832 350.077 36.075 349.628 37.377C349.203 38.6107 348.582 39.786 348.242 41.0736C347.895 42.3858 348.235 43.8402 347.472 47.7019C347.124 49.4693 346.84 51.461 345.428 51.6214C344.116 51.7704 342.635 51.3155 341.5 50.4997C340.267 49.6125 339.159 48.6753 337.572 48.2668C335.637 47.7689 333.028 47.5062 332.067 48.5429C331.568 49.0812 330.879 49.527 330.761 50.122C330.646 50.6984 330.572 51.4552 330.918 52.125C331.575 53.3968 333.255 54.7063 332.647 56.8242C332.416 57.6294 331.969 58.1976 331.335 58.6309C329.865 59.6347 328.203 60.5211 326.945 60.7079C325.397 60.9378 323.571 61.1699 321.939 61.401C320.315 61.6308 317.306 62.0452 316.975 60.508C316.784 59.6232 316.908 58.3688 317.75 57.0437C318.559 55.7719 319.664 54.5129 320.021 53.0387C320.481 51.142 320.786 48.441 319.589 47.9214C319.238 47.7689 318.691 47.7172 318.28 47.8474C317.551 48.0785 315.766 50.0643 313.038 52.3999C311.156 54.0114 309.961 55.0081 308.501 55.6263C307.229 56.1646 305.872 56.6661 304.342 56.7803C301.264 57.0102 296.083 57.1479 294.984 56.1196C293.21 54.4596 291.677 52.9694 291.678 50.5136C291.68 43.5271 292.098 42.3198 292.296 41.025C292.526 39.521 292.322 38.1063 292.796 34.9373C293.067 33.1307 293.447 31.7597 293.412 30.3583C293.372 28.741 293.238 26.8895 292.948 25.3148C292.526 23.0253 292.185 19.9184 292.875 18.9245C293.221 18.4254 293.469 17.4984 294.186 17.3465C296.717 16.8105 300.562 16.8054 301.772 16.5402Z" stroke="black" stroke-width="2.1261" stroke-linecap="round"/>
<circle cx="308.868" cy="21.1078" r="1.59458" fill="black"/>
<circle cx="300.363" cy="50.8732" r="1.59458" fill="black"/>
<circle cx="325.877" cy="55.1254" r="1.59458" fill="black"/>
<circle cx="342.885" cy="44.4949" r="1.59458" fill="black"/>
<circle cx="338.633" cy="23.2339" r="1.59458" fill="black"/>
<path d="M359.489 59.2614C358.407 57.4939 356.97 55.0618 356.836 53.6683C354.538 51.044 355.744 37.5227 356.132 21.9239C356.156 20.9477 356.779 20.0955 357.149 19.1837C357.573 18.1381 358.082 17.2734 358.987 16.6714C360.007 15.9927 361.308 15.0636 362.376 14.9785C364.491 14.8099 367.748 15.1179 369.807 14.9505C371.537 14.8099 373.471 14.9073 375.115 14.6116C376.218 14.4133 377.407 14.3786 378.447 13.9329C379.437 13.5084 380.643 13.3072 381.696 12.6043C382.711 11.9256 383.231 11.114 383.727 10.2022C384.294 9.15662 385.196 8.36862 386.101 7.68993C387.006 7.01123 387.927 6.50077 388.87 6.10885C390.229 5.54369 391.557 5.07096 392.54 4.98023C394.367 4.81162 397.265 4.70288 398.161 5.20901C399.264 5.83178 400.278 6.50792 401.183 7.18662C402.088 7.86532 403.103 8.42683 404.064 8.71008C405.026 8.99393 406.055 9.73302 410.482 9.35828C412.144 9.21762 413.151 9.06556 414.374 8.90666C415.475 8.76347 416.446 8.20303 417.734 7.74754C418.695 7.40777 419.571 6.89975 421.128 6.90108C423.101 6.90278 424.064 7.01577 424.907 7.55351C425.928 8.20424 427.263 8.86897 428.214 9.70228C429.598 10.9156 430.319 11.9813 431.205 12.7797C432.082 13.5694 432.973 13.9516 433.918 14.1617C435.309 14.4709 437.001 14.3899 443.362 14.6692C446.565 14.8099 449.679 14.7243 450.64 15.2649C452.248 16.1689 453.281 16.9642 454.309 18.3448C455.129 19.4463 455.947 20.4565 456.114 21.5638C456.254 22.4966 456.884 23.5459 456.395 27.0196C456.197 28.4278 455.933 29.6159 455.519 30.602C455.007 31.8204 454.452 33.4069 453.512 34.1031C452.635 34.7521 451.444 35.4629 449.867 35.9375C448.737 36.2773 447.876 36.7939 446.931 37.322C445.968 37.86 444.849 38.3181 443.371 39.9232C442.409 40.968 441.661 41.9887 440.831 42.8871C440.152 43.6217 439.28 44.204 438.4 45.063C437.214 46.2213 435.856 47.3326 434.556 48.5963C432.581 50.5154 431.392 51.2565 430.125 52.8303C429.307 53.8471 428.308 54.5094 427.16 55.4841C426.026 56.4466 424.635 57.212 423.913 58.1954C423.206 59.158 422.373 60.1156 421.37 60.9348C420.437 61.6965 419.715 62.3615 418.598 63.026C416.651 64.1842 415.7 64.9544 414.138 65.906C412.981 66.6109 411.865 67.3225 410.778 67.7116C409.591 68.1361 408.562 68.4132 407.359 68.7283C405.518 69.2105 403.766 69.8897 402.531 70.0273C400.766 70.2238 398.397 69.8301 395.75 70.0832C394.279 70.2238 392.917 70.2257 391.742 70.4221C391.235 70.5069 387.086 70.8373 381.274 70.534C378.58 70.3933 377.456 70.2522 375.921 70.0247C373.835 69.7155 372.196 69.5447 370.87 69.0079C369.822 68.5835 367.798 67.9416 366.152 66.6897C364.85 65.6992 362.794 64.1298 361.55 62.6226C360.732 61.6321 360.229 60.4699 359.489 59.2614Z" stroke="black" stroke-width="2.1261" stroke-linecap="round"/>
<path d="M361.692 33.4307C361.524 31.893 361.286 29.7217 361.752 27.5694C362.311 25.6292 362.69 24.5852 363.9 23.0821C364.596 22.2185 365.332 21.3557 366.274 21.2485C367.755 21.0799 369.782 21.1306 370.821 21.2782C371.812 21.4188 372.916 21.6706 373.9 21.7586C375.784 21.9272 378.697 21.7959 379.661 21.6163C380.739 21.4154 381.924 20.8122 383.222 20.4571C384.464 20.1174 385.624 19.2387 386.58 18.0542C387.287 17.1789 387.714 16.1496 388.728 15.3428C389.829 14.4675 390.547 13.7774 391.581 13.2821C392.998 12.6034 396.642 11.6917 398.613 12.467C399.546 12.8339 400.397 13.3765 401.609 13.9939C403.105 14.7556 404.376 16.1132 407.683 15.6283C409.036 15.4301 410.063 15.1773 411.323 14.9505C412.425 14.7522 416.445 13.9214 418.779 14.8395C419.712 15.2064 420.797 15.5719 421.659 16.3375C422.423 17.0162 423.202 17.7854 424.088 18.8244C424.908 19.7852 425.5 20.7982 426.49 21.4502C427.734 22.2695 428.758 23.1028 430.077 22.9152C431.066 22.7745 431.991 22.7469 433.043 22.4059C434.174 22.0391 435.15 21.5915 436.262 21.2765C437.566 20.9071 439.09 19.7761 442.565 20.4309C444.23 20.7444 445.62 20.7987 446.288 21.5349C447.161 22.4966 447.896 23.3442 447.895 24.8165C447.893 26.9602 448.045 28.3234 447.043 29.5013C446.083 30.6308 445.113 31.298 444.078 31.956C443.145 32.5491 442.258 33.0521 441.339 33.282C440.434 33.5082 439.408 33.5671 438.458 33.7904C437.495 34.0166 436.431 33.9725 435.294 34.3267C434.102 34.6978 432.846 35.397 431.678 36.0798C430.662 36.6738 429.948 37.5582 429.478 38.5667C428.91 39.7851 428.078 40.9994 427.472 42.2389C426.934 43.3404 426.548 44.3605 425.89 45.1469C425.182 45.9942 424.47 46.7866 423.487 47.349C422.301 48.0277 421.392 48.5801 420.495 49.2131C419.532 49.8918 418.341 50.652 417.275 51.2178C416.37 51.6983 415.501 52.0851 414.705 52.5735C413.828 53.1116 412.987 54.099 411.676 54.069C409.083 54.0097 407.798 53.8237 407.165 52.9074C406.599 52.088 405.86 51.4709 405.046 50.7611C404.169 49.9969 403.654 48.7329 402.673 48.2768C402.25 48.0802 401.709 48.0114 401.233 48.2522C401.007 48.3666 400.839 48.5344 400.755 48.7911C400.671 49.0479 400.618 49.4015 400.758 49.724C401.295 50.9662 401.665 52.1675 402.595 52.9421C403.613 53.7894 404.329 54.654 405.674 55.8797C406.606 56.7279 407.671 57.7097 407.562 58.7326C407.505 59.2681 407.548 59.9354 407.106 60.4569C406.485 61.1898 405.869 61.7084 405.269 61.9795C404.394 62.3743 400.89 62.4155 396.418 62.6268C394.625 62.7116 394.109 62.809 393.578 62.9378C392.645 63.164 391.758 63.4449 390.839 63.6445C389.415 63.9537 387.306 64.0432 386.462 63.5563C386.263 63.442 386.005 63.2828 386.012 62.8734C386.043 61.0119 386.19 60.0077 386.806 59.0927C387.572 57.9548 388.541 56.5376 389.15 55.4476C389.829 54.2334 390.507 53.3061 390.276 52.2854C390.219 52.0304 390.126 51.7425 389.849 51.6949C389.2 51.583 388.562 51.6685 388.07 51.9524C386.941 52.6032 386.237 53.488 385.615 54.4673C385.077 55.3146 384.521 56.2118 383.722 56.9804C382.928 57.7446 381.824 58.5786 380.841 59.041C379.878 59.4935 378.68 60.1803 377.451 60.5374C376.377 60.8492 375.484 61.2311 374.34 61.2144C372.31 61.1847 371.237 60.9833 370.475 60.279C369.372 59.2596 368.599 58.179 368.076 57.3413C367.511 56.4364 367.033 55.4327 366.636 54.4605C366.267 53.5556 365.552 52.6817 364.912 51.7491C364.291 50.8442 363.659 50.0052 363.417 49.0089L363.414 48.9999C363.161 47.9567 362.881 46.8061 362.513 39.0259C362.429 37.233 362.435 36.7705 362.344 36.3281C362.146 35.3655 361.796 34.3745 361.694 33.4472L361.692 33.4307Z" stroke="black" stroke-width="2.1261" stroke-linecap="round"/>
<path d="M369.152 34.2657C369.378 33.2201 369.677 31.896 370.709 31.2451C371.182 30.8036 371.641 30.5512 372.996 30.0885C373.494 29.9185 374.764 29.8919 376.418 29.8631C377.855 29.7224 378.83 29.7979 379.69 29.3539C380.736 28.8141 381.61 28.0987 382.684 27.4042C383.559 26.8382 384.404 25.5804 385.961 26.0231C387.063 26.3366 388.156 26.9479 388.811 27.8329C389.548 28.8277 390.516 30.2967 390.305 33.1769C390.164 35.0978 390.517 36.8478 389.767 38.1438C388.914 39.619 387.277 41.2684 385.895 41.5577C384.681 41.8118 383.206 41.8821 381.857 42.094C380.783 42.2626 379.853 42.2707 378.835 42.6024C377.787 42.9438 376.668 43.821 375.446 44.4114C374.513 44.8622 373.406 45.7788 372.368 45.5951C371.405 45.4248 369.866 45.2571 369.205 44.2648C368.924 43.842 368.693 43.3391 368.642 42.7668C368.473 40.8866 368.563 38.4168 368.672 37.4567C368.812 36.2128 368.949 35.2047 369.152 34.2657Z" stroke="black" stroke-width="2.1261" stroke-linecap="round"/>
<path d="M394.659 25.5664C395.138 25.0318 395.6 24.4452 396.243 24.3836C397.391 24.1577 398.081 24.3955 399.432 25.7994C399.866 26.2497 400.617 26.6738 401.38 27.3237C402.315 27.8618 403.358 28.9822 405.115 28.9607C407.683 28.9294 409.112 28.5224 411.184 27.4034C412.652 26.6111 414.048 25.2539 416.41 25.713C417.282 25.8825 417.931 26.0937 418.27 26.5629C418.636 27.0704 419.021 27.7325 419.115 28.4557C419.312 29.9631 419.416 31.9714 418.744 33.1456C417.953 34.5284 417.275 35.3147 415.804 36.3069C414.506 37.1822 413.524 37.9422 412.331 38.3667C411.059 38.8192 409.708 39.2831 408.632 39.5521C407.727 39.7783 406.607 40.2489 404.45 41.1637C403.321 41.6424 402.449 42.2528 401.342 42.2347C399.536 42.205 398.287 42.2738 397.306 41.6958C396.828 41.4136 396.36 41.0496 396.292 40.5358C396.153 39.4902 396.365 37.4382 396.095 35.9892C395.926 35.0842 395.84 34.0113 395.388 33.1083C394.906 32.1458 393.947 31.1874 393.949 29.7428C393.95 27.7974 393.714 26.6193 394.659 25.5664Z" stroke="black" stroke-width="2.1261" stroke-linecap="round"/>
<circle cx="368.399" cy="27.4861" r="1.59458" fill="black"/>
<circle cx="374.777" cy="55.1254" r="1.59458" fill="black"/>
<circle cx="396.038" cy="57.2515" r="1.59458" fill="black"/>
<circle cx="410.921" cy="46.621" r="1.59458" fill="black"/>
<circle cx="404.542" cy="21.1078" r="1.59458" fill="black"/>
<circle cx="438.56" cy="27.4861" r="1.59458" fill="black"/>
</svg>
